<?xml version="1.0" standalone="no"?>
<!DOCTYPE svg PUBLIC "-//W3C//DTD SVG 20010904//EN" "http://www.w3.org/TR/2001/REC-SVG-20010904/DTD/svg10.dtd">
<!-- Created using Krita: https://krita.org -->
<svg xmlns="http://www.w3.org/2000/svg" 
    xmlns:xlink="http://www.w3.org/1999/xlink"
    xmlns:krita="http://krita.org/namespaces/svg/krita"
    xmlns:sodipodi="http://sodipodi.sourceforge.net/DTD/sodipodi-0.dtd"
    width="10200.2pt"
    height="13200.5pt"
    viewBox="0 0 10200.2 13200.5">
<defs/>
<path id="shape0" transform="translate(2539.07999055923, 3494.16009114212)" fill="#f94144" fill-rule="evenodd" stroke="#f94144" stroke-width="28.8" stroke-linecap="square" stroke-linejoin="bevel" d="M78.1201 613.44L89.6401 458.64L171 432.72L225.72 390.96L286.2 337.68L358.92 282.96L424.44 241.2L507.96 174.24L623.88 120.96L708.12 79.92L816.84 35.28L929.88 14.4L1029.24 4.32L1163.16 0L1270.44 0.72L1389.96 10.8L1452.6 22.32L1540.44 55.44L1593 90.72L1635.48 130.32L1699.56 209.52L1731.24 296.64L1744.2 381.96L1742.04 477L1695.6 619.56L1697.76 701.64L1725.84 775.08L1746.36 846.36L1759.32 928.44L1767.96 1089.36L1755 1218.96L1718.28 1339.92L1664.28 1428.48L1536.84 1577.52L1342.44 1706.4L1135.8 1775.52L974.16 1807.56L819.72 1814.04L734.4 1805.4L665.28 1802.16L535.68 1806.48L343.44 1831.32L290.52 1622.88L260.28 1533.24L205.2 1423.08L126.36 1307.52L38.88 1155.24L2.16 1053.72L0 1002.96L17.28 960.84L25.92 924.12L24.84 883.08L11.88 797.76L9.72 739.44L30.24 676.8L78.1201 613.44"/>
</svg>
