<?xml version="1.0" standalone="no"?>
<!DOCTYPE svg PUBLIC "-//W3C//DTD SVG 20010904//EN" "http://www.w3.org/TR/2001/REC-SVG-20010904/DTD/svg10.dtd">
<!-- Created using Krita: https://krita.org -->
<svg xmlns="http://www.w3.org/2000/svg" 
    xmlns:xlink="http://www.w3.org/1999/xlink"
    xmlns:krita="http://krita.org/namespaces/svg/krita"
    xmlns:sodipodi="http://sodipodi.sourceforge.net/DTD/sodipodi-0.dtd"
    width="10200.2pt"
    height="13200.5pt"
    viewBox="0 0 10200.2 13200.5">
<defs/>
<path id="shape0" transform="translate(2819.87987774031, 5193.24695215381)" fill="#f8961e" fill-rule="evenodd" stroke="#f8961e" stroke-width="28.8" stroke-linecap="square" stroke-linejoin="bevel" d="M59.4 146.273L81 242.393L89.64 300.713L93.96 347.153L93.96 378.473L79.92 435.713L58.32 499.433L58.32 536.153L69.12 597.713L64.8 618.233L20.52 680.873L0 724.073L1.08 774.833L29.16 842.873L66.96 917.393L68.04 954.113L59.4 1002.71L68.04 1075.07L70.2 1112.87L55.08 1164.71L27 1253.27L18.36 1298.63L16.2 1340.75L28.08 1364.51L9.72008 1364.51L5.40008 1446.59L14.0401 1537.31L20.5201 1606.43L42.1201 1690.67L72.3601 1772.75L111.24 1820.27L158.76 1872.11L208.44 1915.31L277.56 1945.55L357.48 1971.47L487.08 1988.75L569.16 2003.87L693.72 2032.67L829.08 2075.87L932.76 2119.07L1042.2 2182.43L1171.8 2274.59L1284.12 2366.75L1376.28 2464.67L1451.16 2585.63L1491.48 2686.43L1517.4 2790.11L1531.8 2942.75L1523.88 3057.95L1500.12 3217.79L1443.96 3368.99L1396.44 3466.19L1331.64 3582.83L1354.68 3626.75L1439.64 3688.67L1586.52 3806.75L1720.44 3839.87L1793.88 3872.99L1901.88 3900.35L1958.04 3903.23L2032.92 3894.59L2097.72 3867.23L2149.56 3824.03L2188.44 3786.59L2233.08 3704.51L2280.24 3567.71L2280.24 3484.19L2315.16 3358.91L2352.6 3291.23L2388.6 3249.47L2467.8 3168.83L2541.24 3062.27L2584.44 2984.51L2607.48 2922.59L2642.04 2820.35L2682.36 2679.23L2691 2602.91L2706.84 2509.31L2724.12 2443.07L2737.08 2355.23L2744.28 2293.31L2758.68 2204.03L2764.8 2122.67L2757.24 2078.39L2706.48 2077.31L2653.56 2047.07L2576.88 1991.99L2511 1942.31L2444.04 1908.83L2390.04 1873.19L2346.84 1864.55L2280.24 1882.91L2229.54 1906.9L2020.29 1986.32L1851.27 2001.08L1715.84 2000.07L1478.59 1929.3L1380.84 1840.71L1340.62 1736.34L1323.82 1695.61L1290.73 1651.32L1250.51 1620.26L1171.09 1577.5L1145.63 1549.5L1123.74 1513.86L1116.61 1494L1103.37 1436.47L1097.27 1363.67L1103.88 1284.25L1133.92 1152.9L1157.6 1093.33L1175.16 1035.03L1193.49 979.032L1224.8 913.61L1249.75 861.426L1286.4 789.386L1314.66 723.71L1351.31 644.287L1361.24 634.614L1401.46 616.286L1426.66 585.994L1471.98 558.756L1518.05 555.701L1567.18 511.917L1587.04 508.862L1608.42 509.881L1632.6 514.972L1652.97 491.807L1673.08 477.297L1674.35 434.277L1683 415.439L1700.82 396.857L1692.93 345.436L1675.11 316.416L1609.69 265.759L1469.68 166.227L1301.93 93.6775L1186.62 52.6936L1115.85 23.6739L1110.76 0L1075.12 31.8198L853.144 103.86L694.809 135.171L534.691 141.025L362.101 127.279L262.823 130.843L111.361 151.462L59.4 146.273"/>
</svg>
