<?xml version="1.0" standalone="no"?>
<!DOCTYPE svg PUBLIC "-//W3C//DTD SVG 20010904//EN" "http://www.w3.org/TR/2001/REC-SVG-20010904/DTD/svg10.dtd">
<!-- Created using Krita: https://krita.org -->
<svg xmlns="http://www.w3.org/2000/svg" 
    xmlns:xlink="http://www.w3.org/1999/xlink"
    xmlns:krita="http://krita.org/namespaces/svg/krita"
    xmlns:sodipodi="http://sodipodi.sourceforge.net/DTD/sodipodi-0.dtd"
    width="10200.2pt"
    height="13200.5pt"
    viewBox="0 0 10200.2 13200.5">
<defs/>
<path id="shape0" transform="translate(903.959942047489, 8777.1751641866)" fill="#f9844a" fill-rule="evenodd" stroke="#f9844a" stroke-width="28.8" stroke-linecap="square" stroke-linejoin="bevel" d="M5238.36 505.784L5229 554.024L5215.32 602.264L5184 664.184L5150.52 734.384L5119.2 788.384L5093.28 834.824L5049 909.344L5023.08 967.664L4974.48 1075.66L4948.56 1151.26L4923.72 1240.9L4910.76 1306.78L4901.04 1359.7L4893.48 1423.42L4878.36 1489.3L4842.72 1576.78L4785.48 1644.82L4696.92 1696.66L4597.56 1742.02L4494.96 1799.26L4355.64 1835.98L4291.92 1874.86L4207.68 1920.22L4139.64 1964.5L4067.28 2028.22L4015.44 2096.26L3960.36 2164.3L3879.36 2223.7L3768.12 2288.5L3653.64 2358.7L3580.2 2383.54L3512.16 2381.38L3471.12 2381.38L3400.92 2375.98L3312.36 2381.38L3247.56 2401.9L3207.6 2429.98L3138.48 2481.82L3033.72 2566.06L2954.88 2600.62L2881.44 2589.82L2829.6 2559.58L2769.12 2483.98L2709.72 2438.62L2678.4 2383.54L2634.12 2366.26L2580.12 2357.62L2517.48 2385.7L2433.24 2444.02L2380.32 2491.54L2333.88 2576.86L2216.16 2709.7L2126.52 2779.9L2022.84 2845.78L1971 2886.82L1924.56 2957.02L1839.24 3028.3L1772.28 3047.38L1726.2 3032.98L1715.4 2986.18L1716.12 2926.78L1698.84 2880.34L1675.08 2861.98L1634.04 2851.18L1564.92 2840.38L1463.4 2838.22L1373.76 2843.62L1246.32 2860.9L1130.76 2886.82L967.68 2909.5L909.36 2909.5L874.8 2893.3L799.2 2839.3L697.68 2759.38L590.76 2701.06L493.56 2670.82L433.08 2679.46L399.6 2709.7L324 2769.1L252.72 2803.66L131.76 2788.54L74.52 2716.18L60.48 2630.86L69.12 2546.62L78.84 2469.94L88.56 2367.34L84.24 2305.78L71.28 2275.54L23.76 2194.54L0 2105.98L0 2013.1L22.68 1951.54L62.64 1862.98L90.72 1813.3L124.2 1766.86L165.24 1722.58L225.72 1653.46L290.52 1574.62L288.36 1537.9L271.08 1455.82L243 1329.46L226.8 1253.86L227.88 1204.18L238.68 1155.58L278.64 1087.54L334.8 1001.14L358.56 913.664L365.04 820.784L401.76 755.984L455.76 706.304L518.76 669.224L572.04 640.424L625.32 618.824L687.24 604.424L766.44 597.224L821.16 597.224L1064.52 620.264L1218.6 637.544L1353.96 641.864L1533.96 649.064L1649.16 644.744L1889.64 626.024L2010.6 604.424L2111.4 579.944L2170.44 559.784L2209.32 528.104L2255.4 483.464L2292.84 447.464L2374.92 399.944L2445.48 371.144L2624.04 306.344L2713.32 255.944L2753.64 225.704L2838.6 183.944L2939.4 127.784L3034.44 80.2643L3166.43 31.0561L3199.52 15.2735L3222.43 0L3230.58 22.9103L3249.42 59.5667L3351.24 136.952L3487.17 244.885L3581.87 270.85L3661.29 296.815L3736.64 322.78L3809.95 341.108L3860.36 344.163L3849.16 369.11L3854.76 380.819L3894.47 410.348L3955.56 432.749L4058.4 453.114L4204.01 474.497L4310.92 484.17L4448.9 485.698L4599.59 498.425L4888.08 530.265L4929.84 531.345L5096.52 525.585L5200.92 514.785L5238.36 505.784"/>
</svg>
