<?xml version="1.0" standalone="no"?>
<!DOCTYPE svg PUBLIC "-//W3C//DTD SVG 20010904//EN" "http://www.w3.org/TR/2001/REC-SVG-20010904/DTD/svg10.dtd">
<!-- Created using Krita: https://krita.org -->
<svg xmlns="http://www.w3.org/2000/svg" 
    xmlns:xlink="http://www.w3.org/1999/xlink"
    xmlns:krita="http://krita.org/namespaces/svg/krita"
    xmlns:sodipodi="http://sodipodi.sourceforge.net/DTD/sodipodi-0.dtd"
    width="10200.2pt"
    height="13200.5pt"
    viewBox="0 0 10200.2 13200.5">
<defs/>
<path id="shape0" transform="translate(4778.63979657467, 6901.9202044802)" fill="#43aa8b" fill-rule="evenodd" stroke="#43aa8b" stroke-width="28.8" stroke-linecap="square" stroke-linejoin="bevel" d="M0 2219.04L76.32 2211.84L151.2 2180.88L208.08 2134.08L241.92 2100.24L294.48 2010.96L347.76 1859.04L347.76 1778.4L380.751 1660.92L413.843 1601.86L527.376 1478.14L605.52 1369.08L650.16 1287.72L698.04 1152L749.16 978.12L768.96 839.52L791.64 738.72L804.24 660.24L826.2 503.28L833.04 419.4L827.28 375.12L918.72 362.16L1088.28 335.52L1208.16 308.88L1302.48 277.92L1422.72 214.56L1651.32 198.72L1792.8 136.8L1906.56 46.44L1971.72 26.28L2031.84 22.32L2103.48 23.76L2179.44 38.16L2250.36 52.56L2445.12 61.92L2602.08 44.64L2743.2 15.84L2792.16 0L2777.04 87.8393L2771.64 230.399L2781.36 370.799L2794.32 479.879L2788.92 579.239L2743.56 698.039L2710.08 801.719L2709 898.919L2679.84 982.079L2670.12 1056.6L2664.72 1193.76L2642.04 1270.44L2569.68 1375.2L2485.44 1448.64L2385 1487.52L2289.96 1594.44L2210.04 1658.16L2122.56 1719.72L2075.04 1811.52L2013.48 1923.84L1951.92 2042.64L1860.12 2111.76L1771.56 2132.28L1620.72 2206.08L1460.88 2252.16L1393.2 2306.88L1370.16 2351.52L1324.08 2363.04L1218.96 2374.56L1144.08 2376L1036.08 2380.32L966.96 2376L822.96 2360.16L726.48 2347.2L576 2335.32L418.32 2332.08L301.68 2321.28L216.36 2308.32L95.4002 2285.64L37.0802 2265.12L0.360171 2240.28L0 2219.04"/>
</svg>
