<?xml version="1.0" standalone="no"?>
<!DOCTYPE svg PUBLIC "-//W3C//DTD SVG 20010904//EN" "http://www.w3.org/TR/2001/REC-SVG-20010904/DTD/svg10.dtd">
<!-- Created using Krita: https://krita.org -->
<svg xmlns="http://www.w3.org/2000/svg" 
    xmlns:xlink="http://www.w3.org/1999/xlink"
    xmlns:krita="http://krita.org/namespaces/svg/krita"
    xmlns:sodipodi="http://sodipodi.sourceforge.net/DTD/sodipodi-0.dtd"
    width="10200.2pt"
    height="13200.5pt"
    viewBox="0 0 10200.2 13200.5">
<defs/>
<path id="shape0" transform="translate(1348.5600020155, 7182.11199161812)" fill="#4d908e" fill-rule="evenodd" stroke="#4d908e" stroke-width="28.8" stroke-linecap="square" stroke-linejoin="bevel" d="M1791.42 0L1820.18 10.4369L1857.86 15.0189L1911.57 22.1466L1968.59 30.8016L2056.41 46.8388L2157.22 71.0218L2248.1 99.5324L2323.45 126.77L2387.59 153.499L2500.36 217.393L2579.02 273.905L2638.59 317.943L2711.14 377.001L2762.3 425.367L2825.43 492.316L2896.2 606.867L2937.95 710.981L2961.37 807.714L2975.37 953.83L2968.24 1050.31L2956.79 1141.19L2945.33 1219.84L2890.44 1368.97L2833.74 1481.83L2780.89 1576.73L2745.76 1583.86L2672.19 1615.68L2575.46 1652.85L2475.42 1703.25L2369.52 1760.78L2294.17 1796.42L2170.97 1875.59L2046.74 1920.39L1918.44 1970.54L1838.51 2018.14L1772.33 2077.71L1712.51 2130.65L1578.35 2168.07L1443.69 2194.29L1300.38 2204.73L1210.01 2211.6L1062.36 2215.68L992.105 2212.37L844.461 2207.28L772.166 2205.24L648.196 2190.98L447.095 2171.64L383.201 2165.53L322.871 2164.77L240.394 2171.64L173.954 2186.66L118.715 2209.06L66.0213 2237.57L47.184 2247.75L92.2408 2194.04L122.533 2159.16L166.32 2094.37L197.28 2032.45L201.6 1974.85L172.08 1928.77L120.96 1889.17L66.24 1853.89L18.72 1821.49L2.88 1792.69L0 1748.05L2.88 1685.41L13.68 1602.61L29.52 1544.29L54.72 1524.85L90 1497.49L110.16 1466.53L144.72 1413.25L192.24 1376.53L239.04 1344.13L282.96 1329.73L395.28 1303.09L452.88 1286.53L524.88 1284.37L594 1272.85L670.32 1258.45L740.88 1239.73L779.04 1233.25L818.64 1237.57L851.334 1236.14L915.992 1214.24L969.449 1182.17L1028 1151.62L1078.91 1112.93L1121.68 1066.6L1134.4 1024.34L1150.69 975.977L1179.21 920.483L1213.32 878.736L1236.74 802.368L1272.6 741.848L1307.16 669.488L1325.52 610.088L1356.84 570.128L1435.68 512.888L1527.48 430.808L1543.68 377.888L1577.16 347.648L1664.39 288.16L1766.73 227.575L1806.95 206.701L1826.29 144.08L1810.51 106.405L1794.22 52.9479L1791.42 0"/>
</svg>
