<?xml version="1.0" standalone="no"?>
<!DOCTYPE svg PUBLIC "-//W3C//DTD SVG 20010904//EN" "http://www.w3.org/TR/2001/REC-SVG-20010904/DTD/svg10.dtd">
<!-- Created using Krita: https://krita.org -->
<svg xmlns="http://www.w3.org/2000/svg" 
    xmlns:xlink="http://www.w3.org/1999/xlink"
    xmlns:krita="http://krita.org/namespaces/svg/krita"
    xmlns:sodipodi="http://sodipodi.sourceforge.net/DTD/sodipodi-0.dtd"
    width="10200.2pt"
    height="13200.5pt"
    viewBox="0 0 10200.2 13200.5">
<defs/>
<path id="shape0" transform="translate(2589.11991907037, 980.639965007034)" fill="#277da1" fill-rule="evenodd" stroke="#277da1" stroke-width="28.8" stroke-linecap="square" stroke-linejoin="bevel" d="M1627.9 3970.52L1900.44 4004.64L2106.72 4035.96L2294.64 4085.64L2406.96 4109.4L2564.64 4127.76L2705.04 4129.92L2781.72 4123.44L2830.32 4108.32L2784.96 4020.84L2751.48 3915L2729.88 3807L2743.92 3707.64L2787.12 3619.08L2844.36 3539.16L2911.32 3484.08L2963.16 3449.52L3013.92 3398.76L3047.4 3338.28L3086.28 3294L3138.12 3210.84L3192.12 3089.88L3231 3027.24L3255.84 2946.24L3257.28 2862.72L3237.12 2797.92L3160.8 2603.52L3114.72 2448L3140.64 2327.04L3193.2 2257.2L3231 2172.96L3264.48 2138.4L3304.44 2115.72L3395.16 2047.68L3428.64 2006.64L3481.56 1979.64L3582 1950.48L3648.96 1941.84L3712.68 1962.36L3767.76 2005.56L3813.12 1983.96L3648.96 1733.76L3553.92 1614.24L3392.64 1452.96L3333.6 1379.52L3286.08 1288.8L3242.88 1170.72L3218.4 1139.04L3097.44 1103.04L3032.64 1075.68L3041.28 1022.4L3039.84 938.88L3002.4 885.6L2949.12 807.84L2894.4 734.4L2888.64 663.84L2887.2 558.72L2839.68 453.6L2772 329.76L2727.36 289.44L2666.88 272.16L2597.76 227.52L2534.4 184.32L2494.08 90.72L2465.28 30.24L2409.12 0L2337.12 0L2180.16 69.12L2111.04 154.08L2046.24 223.2L1992.96 252L1931.04 328.32L1863.36 365.76L1779.84 396L1681.92 455.04L1631.52 516.96L1568.16 630.72L1454.4 727.2L1304.64 842.4L1216.8 946.08L1084.32 1105.92L928.8 1264.32L817.92 1369.44L698.4 1424.16L578.88 1471.68L447.84 1488.96L360 1540.8L269.28 1609.92L223.2 1692L168.48 1753.92L105.12 1789.92L86.4 1805.76L73.44 1923.84L27.36 2005.92L0 2102.4L5.76 2200.32L28.8 2279.52L69.12 2413.44L76.32 2488.32L50.4 2545.92L43.2 2610.72L31.68 2665.44L46.08 2710.08L72 2770.56L69.12 2831.04L46.08 2905.92L28.8 2957.76L53.28 2967.84L125.28 2946.24L204.48 2872.8L285.12 2812.32L419.04 2724.48L507.838 2651.4L563.841 2607.62L663.373 2560.01L757.814 2521.32L867.02 2501.21L963.498 2490.77L1105.8 2484.92L1226.97 2485.68L1345.59 2496.63L1405.41 2507.57L1500.87 2542.7L1559.93 2581.65L1606.26 2624.93L1673.46 2709.18L1708.34 2803.88L1721.57 2891.7L1719.03 2997.34L1672.95 3136.59L1676.16 3219.48L1686.96 3260.88L1708.92 3324.6L1729.26 3386.88L1738.12 3439.26L1746.01 3604.21L1732.26 3736.84L1691.28 3868.7L1627.9 3970.52"/>
</svg>
