<?xml version="1.0" standalone="no"?>
<!DOCTYPE svg PUBLIC "-//W3C//DTD SVG 20010904//EN" "http://www.w3.org/TR/2001/REC-SVG-20010904/DTD/svg10.dtd">
<!-- Created using Krita: https://krita.org -->
<svg xmlns="http://www.w3.org/2000/svg" 
    xmlns:xlink="http://www.w3.org/1999/xlink"
    xmlns:krita="http://krita.org/namespaces/svg/krita"
    xmlns:sodipodi="http://sodipodi.sourceforge.net/DTD/sodipodi-0.dtd"
    width="10200.2pt"
    height="13200.5pt"
    viewBox="0 0 10200.2 13200.5">
<defs/>
<path id="shape0" transform="translate(3944.15974518739, 4958.28929782039)" fill="#577590" fill-rule="evenodd" stroke="#577590" stroke-width="28.8" stroke-linecap="square" stroke-linejoin="bevel" d="M260.127 0L264.71 20.3647L298.311 24.4376L458.174 43.2749L619.055 66.1852L743.279 85.0225L1040.6 157.826L1201.48 177.682L1350.15 180.736L1429.06 173.609L1483.03 154.772L1536.84 220.31L1581.12 279.71L1626.48 340.19L1652.4 402.83L1667.52 479.51L1719.36 532.43L1791.36 568.43L1896.48 579.95L2020.32 620.27L2102.4 638.99L2175.84 689.39L2216.16 751.31L2259.36 834.83L2315.52 903.951L2355.12 980.271L2361.24 1021.31L2377.08 1064.87L2379.96 1137.59L2365.92 1263.23L2323.44 1362.23L2282.4 1420.55L2264.76 1467.35L2262.24 1520.99L2268.72 1616.39L2262.96 1656.71L2228.04 1690.55L2199.35 1738.63L2192.23 1771.73L2195.28 1786.49L2223.79 1833.84L2234.99 1863.88L2230.16 1923.7L2242.37 1980.72L2231.17 2064.72L2239.32 2144.4L2126.16 2196.35L2040.48 2225.15L1937.52 2248.91L1803.6 2270.51L1694.88 2289.23L1637.28 2294.99L1591.2 2288.51L1532.88 2254.67L1406.16 2158.19L1273.68 2087.63L1226.88 2083.31L1146.96 2096.27L1093.68 2116.43L966.6 2169.71L892.08 2194.55L820.8 2202.11L722.52 2209.67L597.24 2207.51L514.08 2190.23L443.88 2168.63L366.12 2139.47L276.48 2057.39L248.4 1981.79L222.48 1916.99L183.6 1865.15L141.48 1833.83L105.84 1817.63L65.8801 1793.87L44.2801 1770.11L19.4401 1730.15L7.2 1674.35L0 1595.15L5.76 1521.71L21.6 1445.39L40.32 1379.15L96.48 1220.75L167.04 1075.31L216 968.751L249.48 894.231L293.76 874.791L318.6 843.471L353.16 820.791L378 818.631L403.92 818.631L420.12 799.191L433.08 786.231L451.44 773.271L473.04 771.111L509.76 776.511L518.4 777.591L533.52 759.231L550.8 741.951L567 731.151L573.48 722.511L576.72 671.751L587.52 656.631L603.72 641.511L601.56 613.431L592.92 568.071L571.32 533.511L503.28 479.511L437.4 433.071L358.56 377.991L284.04 342.351L203.04 308.871L66.9602 260.271L0.478043 233.939L148.122 135.934L156.777 127.025L207.689 67.7128L260.127 0"/>
</svg>
