<?xml version="1.0" standalone="no"?>
<!DOCTYPE svg PUBLIC "-//W3C//DTD SVG 20010904//EN" "http://www.w3.org/TR/2001/REC-SVG-20010904/DTD/svg10.dtd">
<!-- Created using Krita: https://krita.org -->
<svg xmlns="http://www.w3.org/2000/svg" 
    xmlns:xlink="http://www.w3.org/1999/xlink"
    xmlns:krita="http://krita.org/namespaces/svg/krita"
    xmlns:sodipodi="http://sodipodi.sourceforge.net/DTD/sodipodi-0.dtd"
    width="10200.2pt"
    height="13200.5pt"
    viewBox="0 0 10200.2 13200.5">
<defs/>
<path id="shape0" transform="translate(5325.11960675615, 2936.87978312038)" fill="#f3722c" fill-rule="evenodd" stroke="#f3722c" stroke-width="28.8" stroke-linecap="square" stroke-linejoin="bevel" d="M105.84 2157.84L54 2054.88L8.64 1918.08L0 1843.92L15.84 1753.2L68.4 1648.8L114.48 1595.52L172.08 1545.84L242.64 1499.04L285.84 1452.96L313.2 1402.56L351.36 1352.88L390.24 1301.04L450.72 1196.64L483.12 1119.6L522.72 1046.16L540 978.48L541.44 927.36L527.76 865.44L429.12 632.88L393.84 516.96L398.88 414.72L439.2 349.92L478.8 276.48L501.12 226.8L545.04 187.2L604.08 151.92L648 118.08L696.96 68.4L731.52 41.76L789.84 16.56L873.36 2.88L932.4 0L1008 33.12L1046.88 68.4L1088.64 51.84L1160.64 171.36L1218.24 278.64L1288.8 400.32L1322.28 500.76L1344.96 616.32L1374.12 682.2L1403.28 754.56L1427.04 822.6L1467 900.36L1526.4 952.56L1595.52 1007.28L1671.84 1017.36L1694.88 1014.48L1723.68 1027.44L1726.56 1047.6L1755.36 1079.28L1805.76 1113.84L1880.64 1149.84L1939.68 1193.04L1971.36 1211.76L1997.28 1216.08L2016 1194.48L2040.48 1154.16L2089.44 1123.92L2171.52 1087.92L2243.52 1050.48L2291.04 1093.68L2365.92 1279.44L2316.96 1398.96L2318.4 1459.44L2338.56 1591.92L2314.08 1731.6L2332.8 1878.48L2328.48 1953.36L2289.6 2021.04L2233.44 2123.28L2130.48 2187.36L2134.08 2247.84L2154.24 2279.52L2208.96 2335.68L2231.28 2385.36L2275.92 2420.64L2324.16 2548.08L2350.08 2693.52L2378.88 2874.96L2399.04 2926.8L2399.04 2970L2430.72 3060.72L2436.48 3234.96L2414.88 3304.08L2368.8 3384.72L2337.12 3492.72L2322.72 3566.16L2302.56 3593.52L2280.96 3728.88L2281.32 3844.44L2262.96 3927.6L2213.28 3949.2L2146.32 3965.4L2052.36 3982.68L1897.92 3998.88L1822.32 3994.56L1713.24 3991.32L1638.72 3977.28L1559.88 3962.16L1482.12 3960L1419.48 3965.4L1346.04 3988.08L1284.48 4033.44L1231.56 4078.8L1166.76 4111.2L1100.88 4137.12L966.96 4155.48L885.96 4164.12L877.32 4087.44L889.2 4003.2L877.32 3944.88L881.64 3866.04L839.52 3796.92L843.84 3771L862.2 3735.36L887.04 3714.84L906.48 3692.16L916.2 3637.08L908.64 3543.12L911.88 3482.64L933.48 3439.44L966.96 3397.32L991.8 3346.56L1011.24 3293.64L1016.64 3252.6L1020.96 3207.24L1027.44 3156.48L1023.12 3113.28L1018.8 3069L1005.84 3029.04L995.04 3010.68L927.36 2890.8L875.52 2824.56L828 2745.36L764.64 2674.8L685.44 2641.68L609.12 2618.64L516.96 2591.28L414.72 2578.32L352.8 2556.72L318.24 2527.92L295.2 2484.72L285.12 2432.88L244.8 2345.04L190.08 2277.36L151.2 2221.2L105.84 2157.84"/>
</svg>
