<?xml version="1.0" standalone="no"?>
<!DOCTYPE svg PUBLIC "-//W3C//DTD SVG 20010904//EN" "http://www.w3.org/TR/2001/REC-SVG-20010904/DTD/svg10.dtd">
<!-- Created using Krita: https://krita.org -->
<svg xmlns="http://www.w3.org/2000/svg" 
    xmlns:xlink="http://www.w3.org/1999/xlink"
    xmlns:krita="http://krita.org/namespaces/svg/krita"
    xmlns:sodipodi="http://sodipodi.sourceforge.net/DTD/sodipodi-0.dtd"
    width="10200.2pt"
    height="13200.5pt"
    viewBox="0 0 10200.2 13200.5">
<defs/>
<path id="shape0" transform="translate(2523.35829695296, 3476.96796132433)" fill="none" stroke="#fe3521" stroke-width="28.8" stroke-linecap="round" stroke-linejoin="bevel" stroke-dasharray="115.2,57.6,28.8,57.6" d="M691.603 1833.75C829.159 1846.23 927.072 1848.63 985.342 1840.95C1072.75 1829.43 1442.43 1727.19 1559.93 1601.91C1677.42 1476.63 1803.51 1306.71 1796.35 1123.83C1789.19 940.952 1718.97 785.432 1721.84 693.272C1724.71 601.112 1767.69 608.312 1766.26 484.472C1764.83 360.632 1763.39 130.232 1547.03 53.9118C1330.67 -22.4082 978.178 -3.68818 873.578 25.1118C768.978 53.9118 455.178 193.592 353.444 274.232C285.621 327.992 197.738 387.512 89.7951 452.792C89.7951 536.312 82.6307 593.912 68.3019 625.592C46.8088 673.112 5.25542 727.832 5.25542 762.392C5.25542 796.952 36.7787 870.392 31.0472 922.232C25.3157 974.072 5.25542 979.832 0.956789 1012.95C-3.34184 1046.07 5.25542 1146.87 59.7047 1228.95C114.154 1311.03 230.217 1463.67 260.307 1539.99C280.368 1590.87 307.592 1695.03 341.981 1852.47C365.488 1856.88 399.532 1855.52 444.112 1848.39C510.983 1837.7 558.604 1833.63 601.158 1832.61C643.712 1831.59 643.712 1831.59 691.603 1833.75Z"/><path id="shape1" transform="translate(2788.53134771442, 5190.48013544975)" fill="none" stroke="#fe3521" stroke-width="28.8" stroke-linecap="round" stroke-linejoin="bevel" stroke-dasharray="115.2,57.6,28.8,57.6" d="M1131.15 0C1269.63 54.48 1366.59 94.2 1422.03 119.16C1505.19 156.6 1662.15 247.32 1698.15 294.48C1722.15 325.92 1738.83 366.48 1748.19 416.16C1737.63 418.56 1730.43 425.52 1726.59 437.04C1722.75 448.56 1719.87 465.12 1717.95 486.72C1714.11 483.36 1706.67 488.16 1695.63 501.12C1684.59 514.08 1675.71 524.4 1668.99 532.08C1642.59 522 1623.39 519.6 1611.39 524.88C1599.39 530.16 1580.19 546 1553.79 572.4C1523.07 569.04 1499.79 573.36 1483.95 585.36C1468.11 597.36 1454.67 612.24 1443.63 630C1414.83 633.84 1397.79 641.76 1392.51 653.76C1384.59 671.76 1197.39 1027.44 1171.47 1167.12C1145.55 1306.8 1112.43 1483.92 1187.31 1542.96C1262.19 1602 1364.43 1650.96 1381.71 1717.2C1398.99 1783.44 1442.19 1885.68 1522.83 1920.24C1603.47 1954.8 1836.75 2061.36 2055.63 1976.4C2274.51 1891.44 2350.83 1854 2391.15 1859.76C2431.47 1865.52 2598.51 1969.2 2638.83 2003.76C2679.15 2038.32 2707.23 2068.56 2741.79 2075.04C2764.83 2079.36 2785.71 2080.56 2804.43 2078.64C2808.27 2247.6 2786.67 2421.84 2739.63 2601.36C2669.07 2870.64 2634.51 3027.6 2514.99 3167.28C2395.47 3306.96 2323.11 3399.84 2325.27 3502.44C2327.43 3605.04 2268.03 3775.68 2192.43 3832.92C2116.83 3890.16 2033.67 3954.96 1859.79 3898.8C1685.91 3842.64 1645.95 3839.4 1613.55 3818.88C1581.15 3798.36 1458.03 3705.48 1412.67 3667.68C1382.43 3642.48 1361.19 3612.24 1348.95 3576.96C1461.27 3388.32 1522.11 3249 1531.47 3159C1545.51 3024 1567.11 2805.84 1502.31 2674.08C1437.51 2542.32 1136.19 2174.04 882.389 2100.6C628.589 2027.16 424.469 2008.8 301.349 1961.28C178.229 1913.76 65.9087 1787.4 46.4687 1666.44C27.0287 1545.48 11.9085 1433.16 20.5485 1360.8C29.1885 1288.44 74.5485 1204.2 75.6285 1137.24C76.7085 1070.28 59.4285 1051.92 61.5885 980.639C63.7485 909.359 28.1085 884.52 11.9085 824.04C-4.29151 763.56 -8.61151 684.72 29.1885 650.16C66.9885 615.6 89.6685 617.76 74.5485 573.48C59.4285 529.2 52.9485 466.56 72.3885 436.32C91.8285 406.08 104.788 401.76 104.788 379.08C104.788 356.4 101.548 297 93.9885 261.36C88.9485 237.6 82.5885 197.76 74.9087 141.84"/><path id="shape2" transform="translate(4196.88023213242, 4953.60027398714)" fill="none" stroke="#fe3521" stroke-width="28.8" stroke-linecap="round" stroke-linejoin="bevel" stroke-dasharray="115.2,57.6,28.8,57.6" d="M0 0C65.6926 13.6477 159.124 28.1084 280.294 43.3819C462.048 66.2921 762.427 146.733 868.833 158.951C975.238 171.17 1115.64 178.92 1166.76 164.52C1200.84 154.92 1218.24 150 1218.96 149.76C1317.84 265.439 1371.96 343.079 1381.32 382.679C1395.36 442.079 1397.52 505.799 1438.56 537.119C1479.6 568.439 1481.76 566.279 1600.56 593.279C1719.36 620.279 1803.6 613.799 1868.4 675.359C1933.2 736.919 2086.56 915.119 2114.64 1013.4C2142.72 1111.68 2156.76 1235.88 2109.24 1317.96C2061.72 1400.04 2009.88 1473.48 2027.16 1568.52C2044.44 1663.56 2000.16 1672.2 1982.88 1705.68C1965.6 1739.16 1937.52 1769.4 1963.44 1808.28C1989.36 1847.16 1994.76 1890.36 1992.6 1921.68C1990.44 1953 2000.16 1938.96 2001.24 1976.76C2002.32 2014.56 1981.8 2001.6 1990.44 2075.04C1996.2 2124 1999.8 2148.12 2001.24 2147.4C1911.96 2202.84 1824.48 2238.84 1738.8 2255.4C1653.12 2271.96 1539 2291.76 1396.44 2314.8"/><path id="shape3" transform="translate(2584.60271027077, 977.992304900237)" fill="none" stroke="#fe3521" stroke-width="28.8" stroke-linecap="round" stroke-linejoin="round" stroke-dasharray="115.2,57.6,28.8,57.6" d="M31.8772 2935.93C68.3572 2851.45 81.7972 2795.29 72.1972 2767.45C57.7972 2725.69 40.5172 2721.37 37.6372 2675.29C34.7572 2629.21 47.7172 2545.69 63.5572 2519.77C79.3972 2493.85 89.4772 2489.53 77.9572 2440.57C66.4372 2391.61 47.7172 2322.49 24.6772 2233.21C1.63719 2143.93 -12.7628 2099.29 16.0372 2038.81C44.8372 1978.33 75.0772 1950.97 80.8372 1919.29C86.5972 1887.61 72.1972 1837.21 88.0372 1815.61C103.877 1794.01 131.237 1811.29 188.837 1732.09C246.437 1652.89 242.117 1638.49 304.037 1585.21C365.957 1531.93 384.677 1497.37 468.197 1482.97C551.717 1468.57 587.717 1485.85 715.877 1416.73C844.037 1347.61 963.557 1242.49 1039.88 1157.53C1116.2 1072.57 1280.36 862.328 1391.24 780.248C1502.12 698.168 1548.2 667.928 1571.24 639.128C1594.28 610.328 1646.84 474.248 1712.36 436.808C1777.88 399.368 1844.12 392.168 1886.6 365.528C1929.08 338.888 1944.2 283.448 2004.68 247.448C2065.16 211.448 2093.24 188.408 2129.96 140.888C2166.68 93.3676 2194.76 51.6076 2277.56 27.1276C2360.36 2.64763 2401.4 -11.0324 2435.24 11.2876C2469.08 33.6076 2491.76 55.9276 2503.64 91.9276C2515.52 127.928 2502.92 178.328 2564.84 212.168C2626.76 246.008 2634.68 272.648 2678.6 282.008C2722.52 291.368 2756.36 298.568 2806.04 384.968C2855.72 471.368 2882.36 521.768 2893.16 570.728C2903.96 619.688 2881.64 694.568 2898.92 725.528C2916.2 756.488 2937.8 775.208 2967.32 828.488C2996.84 881.768 3032.12 898.328 3040.76 945.848C3046.52 977.528 3044.6 1020.49 3035 1074.73C3045.56 1089.13 3077 1102.81 3129.32 1115.77C3207.8 1135.21 3224.36 1131.61 3241.64 1163.29C3258.92 1194.97 3284.12 1280.65 3307.88 1318.81C3331.64 1356.97 3422.36 1462.09 3484.28 1522.57C3546.2 1583.05 3623.24 1665.85 3657.08 1716.97C3690.92 1768.09 3811.88 1943.05 3822.68 1966.09C3829.88 1981.45 3833.96 1989.85 3834.92 1991.29L3780.92 2017.21C3761.72 1992.73 3738.92 1974.49 3712.52 1962.49C3672.92 1944.49 3616.04 1945.21 3569.24 1958.89C3522.44 1972.57 3455.48 1984.81 3423.08 2020.09C3390.68 2055.37 3358.28 2090.65 3324.44 2109.37C3290.6 2128.09 3240.2 2152.57 3222.92 2192.17C3205.64 2231.77 3196.28 2274.25 3167.48 2305.93C3148.28 2327.05 3129.8 2347.45 3112.04 2367.13C3103.64 2425.93 3108.44 2473.69 3126.44 2510.41C3153.44 2565.49 3176.12 2670.25 3209.6 2731.81C3243.08 2793.37 3263.6 2849.53 3263.6 2895.97C3263.6 2942.41 3272.24 2961.85 3235.52 3029.89C3198.8 3097.93 3170.72 3181.09 3129.68 3240.49C3088.64 3299.89 3069.14 3338.3 3021.28 3392.27C2973.43 3446.23 2950.04 3477.37 2880.92 3519.85C2811.8 3562.33 2767.16 3642.25 2752.04 3718.57C2736.92 3794.89 2735.48 3840.97 2759.24 3923.77C2783 4006.57 2803.88 4050.49 2821.16 4092.25C2832.68 4120.09 2838.44 4134.01 2838.44 4134.01"/><path id="shape4" transform="translate(6199.51616201876, 2963.51987331109)" fill="none" stroke="#fe3521" stroke-width="28.8" stroke-linecap="round" stroke-linejoin="round" stroke-dasharray="115.2,57.6,28.8,57.6" d="M0 4140.19C121.849 4146.3 213.49 4135.1 274.923 4106.59C367.073 4063.82 369.619 4049.57 443.441 4000.18C517.263 3950.8 570.211 3941.63 635.378 3947.23C700.545 3952.83 797.277 3977.78 910.301 3982.36C1023.32 3986.94 1100.2 3986.43 1193.88 3967.09C1256.33 3954.19 1319.63 3939.09 1383.78 3921.78C1407.61 3833.02 1419.04 3776.16 1418.08 3751.2C1416.64 3713.76 1410.88 3696.48 1419.52 3636.72C1428.16 3576.96 1445.44 3562.56 1456.96 3533.76C1468.48 3504.96 1469.92 3445.92 1485.76 3404.16C1501.6 3362.4 1553.44 3255.84 1562.08 3229.92C1570.72 3204 1575.04 3055.68 1553.44 2975.04C1531.84 2894.4 1554.88 2941.92 1530.4 2864.16C1505.92 2786.4 1497.28 2751.84 1485.76 2661.12C1474.24 2570.4 1471.36 2551.68 1444 2478.24C1416.64 2404.8 1400.8 2386.08 1372 2352.96C1343.2 2319.84 1350.4 2298.24 1328.8 2276.64C1307.2 2255.04 1262.56 2244.96 1253.92 2204.64C1245.28 2164.32 1295.68 2158.56 1328.8 2125.44C1361.92 2092.32 1416.64 2057.76 1444 1984.32C1471.36 1910.88 1472.8 1900.8 1471.36 1854.72C1469.92 1808.64 1448.32 1738.08 1454.08 1690.56C1459.84 1643.04 1478.56 1598.4 1477.12 1559.52C1475.68 1520.64 1469.92 1481.76 1459.84 1432.8C1449.76 1383.84 1452.64 1356.48 1472.8 1324.8C1492.96 1293.12 1510.24 1271.52 1508.8 1247.04C1507.36 1222.56 1456.96 1154.88 1446.88 1121.76C1436.8 1088.64 1439.68 1064.16 1410.88 1039.68C1391.68 1023.36 1376.8 1011.36 1366.24 1003.68C1343.2 1022.88 1319.68 1037.76 1295.68 1048.32C1259.68 1064.16 1215.04 1074.24 1192 1091.52C1168.96 1108.8 1166.08 1100.16 1144.48 1136.16C1130.08 1160.16 1121.44 1173.6 1118.56 1176.48C1093.6 1177.44 1073.44 1169.76 1058.08 1153.44C1035.04 1128.96 1026.4 1116 993.284 1104.48C960.164 1092.96 908.324 1078.56 880.964 1051.2C853.604 1023.84 870.884 1005.12 849.284 990.72C827.684 976.32 837.764 967.68 798.884 973.44C760.004 979.2 732.644 994.32 689.444 952.56C646.244 910.8 590.804 872.64 566.324 805.68C541.844 738.72 553.364 729.36 518.084 662.4C482.804 595.44 472.724 489.6 447.524 421.2C422.324 352.8 358.244 241.2 322.244 180C298.244 139.2 263.204 79.2 217.124 0"/><path id="shape5" transform="translate(4762.79997158707, 6884.27873126419)" fill="none" stroke="#fe3521" stroke-width="28.8" stroke-linecap="round" stroke-linejoin="round" stroke-dasharray="115.2,57.6,28.8,57.6" d="M0 2233.08C12.48 2278.68 53.28 2307.48 122.4 2319.48C226.08 2337.48 387.36 2364.84 497.52 2365.56C607.68 2366.28 748.8 2376.36 887.04 2393.64C1025.28 2410.92 1054.08 2422.44 1220.4 2404.44C1331.28 2392.44 1386.96 2386.2 1387.44 2385.72C1403.76 2330.04 1425.6 2295.96 1452.96 2283.48C1494 2264.76 1663.92 2225.88 1810.8 2161.8C1957.68 2097.72 1985.04 2102.76 2000.88 2045.16C2016.72 1987.56 2090.16 1804.68 2131.92 1761.48C2173.68 1718.28 2280.24 1663.56 2327.76 1610.28C2375.28 1557 2355.12 1536.84 2431.44 1502.28C2507.76 1467.72 2568.24 1453.32 2634.48 1341C2700.72 1228.68 2684.88 1250.28 2687.76 1161C2690.64 1071.72 2683.44 1034.28 2707.92 975.241C2732.4 916.201 2730.96 910.441 2726.64 867.241C2722.32 824.041 2729.52 788.041 2749.68 741.961C2769.84 695.881 2811.6 622.441 2814.48 579.241C2817.36 536.041 2815.92 459.721 2804.4 399.241C2792.88 338.761 2781.36 249.481 2790 183.241C2798.64 117.001 2797.08 89.6046 2804.71 62.6214C2809.8 44.6326 2814.9 23.7588 2819.99 0"/><path id="shape6" transform="translate(1340.08868876356, 7167.34716691038)" fill="none" stroke="#fe3521" stroke-width="28.8" stroke-linecap="round" stroke-linejoin="round" stroke-dasharray="115.2,57.6,28.8,57.6" d="M2798.11 1596.49C2686.99 1635.37 2606.35 1668.37 2556.19 1695.49C2480.95 1736.17 2344.15 1798.09 2300.95 1828.33C2257.75 1858.57 2229.67 1885.93 2149.75 1916.17C2069.83 1946.41 1899.19 1999.69 1812.79 2079.61C1726.39 2159.53 1732.87 2167.45 1583.83 2197.69C1434.79 2227.93 1318.15 2236.57 1198.63 2240.17C1079.11 2243.77 980.471 2245.21 858.071 2237.29C735.671 2229.37 547.751 2204.89 468.551 2199.85C389.351 2194.81 288.551 2181.85 217.271 2206.33C169.751 2222.65 109.271 2249.53 35.8313 2286.97C59.3513 2247.13 84.3113 2212.81 110.711 2184.01C150.311 2140.81 194.231 2088.97 200.711 2052.97C207.191 2016.97 220.151 1978.09 169.751 1944.25C119.351 1910.41 40.1513 1872.25 23.5913 1842.73C7.03133 1813.21 -7.36867 1756.33 4.15133 1685.05C15.6713 1613.77 23.5913 1561.93 48.0713 1541.77C72.5513 1521.61 85.5113 1517.29 116.471 1473.37C147.431 1429.45 165.431 1403.53 203.591 1381.93C241.751 1360.33 273.431 1345.93 359.111 1322.89C444.791 1299.85 443.351 1309.21 526.871 1296.25C610.391 1283.29 642.791 1273.21 711.191 1260.25C779.591 1247.29 822.071 1255.21 859.511 1245.13C896.951 1235.05 986.231 1199.05 1013.59 1180.33C1040.95 1161.61 1110.79 1116.97 1120.87 1085.29C1130.95 1053.61 1124.47 1027.69 1141.03 998.893C1157.59 970.093 1156.87 952.092 1177.39 931.572C1197.91 911.052 1207.63 908.892 1218.43 873.252C1229.23 837.612 1230.31 808.452 1254.07 782.532C1277.83 756.612 1287.55 747.972 1298.35 719.892C1309.15 691.812 1306.99 649.692 1344.79 609.732C1382.59 569.772 1459.27 516.852 1494.91 477.972C1530.55 439.092 1534.87 453.132 1543.51 427.212C1552.15 401.292 1545.67 396.972 1560.79 382.932C1575.91 368.892 1630.99 326.772 1690.39 290.052C1749.79 253.332 1798.39 225.252 1814.59 215.532C1830.79 205.812 1836.19 174.492 1826.47 146.412C1816.75 118.332 1794.03 100.296 1791.49 75.3493C1789.79 58.7181 1788.1 33.6017 1786.4 0"/><path id="shape7" transform="translate(890.513511123669, 9268.55970772081)" fill="none" stroke="#fe3521" stroke-width="28.8" stroke-linecap="round" stroke-linejoin="round" stroke-dasharray="115.2,57.6,28.8,57.6" d="M483.246 185.76C465.246 205.2 448.326 222.12 432.486 236.52C408.726 258.12 384.966 278.64 376.326 304.56C367.686 330.48 354.726 368.28 354.726 406.08C354.726 443.88 353.646 466.56 338.526 493.56C323.406 520.56 274.806 591.84 257.526 627.48C240.246 663.12 220.806 687.96 225.126 731.16C229.446 774.36 237.006 786.24 243.486 851.04C249.966 915.84 268.326 947.16 274.806 982.8C279.126 1006.56 282.726 1038.24 285.606 1077.84C238.086 1141.2 201.006 1188.72 174.366 1220.4C134.406 1267.92 64.2065 1366.2 50.1665 1401.84C36.1265 1437.48 -4.91354 1545.48 0.486461 1573.56C5.88646 1601.64 15.6065 1684.8 33.9665 1715.04C52.3265 1745.28 92.2865 1789.56 97.6865 1819.8C103.086 1850.04 104.166 1874.88 89.0465 1969.92C73.9265 2064.96 65.2865 2133 80.4065 2170.8C95.5265 2208.6 113.886 2275.56 132.246 2287.44C150.606 2299.32 221.886 2315.52 258.606 2305.8C295.326 2296.08 352.566 2280.96 393.606 2244.24C434.646 2207.52 438.966 2189.16 474.606 2182.68C510.246 2176.2 535.086 2175.12 579.366 2203.2C623.646 2231.28 746.766 2293.92 791.046 2332.8C835.326 2371.68 876.366 2417.04 902.286 2423.52C928.206 2430 915.246 2453.76 1084.81 2419.2C1254.37 2384.64 1336.45 2360.88 1435.81 2361.96C1535.17 2363.04 1551.37 2351.16 1620.49 2369.52C1689.61 2387.88 1714.45 2387.88 1725.25 2432.16C1736.05 2476.44 1712.29 2504.52 1731.73 2530.44C1751.17 2556.36 1778.17 2568.24 1801.93 2558.52C1825.69 2548.8 1860.25 2550.96 1894.81 2516.4C1929.37 2481.84 1950.97 2442.96 1985.53 2412.72C2020.09 2382.48 2011.45 2373.84 2102.17 2316.6C2192.89 2259.36 2228.53 2238.84 2290.09 2158.92C2351.65 2079 2358.13 2041.2 2399.17 2007.72C2440.21 1974.24 2469.37 1935.36 2533.09 1905.12C2596.81 1874.88 2620.57 1871.64 2650.81 1882.44C2681.05 1893.24 2688.61 1886.76 2718.85 1927.8C2749.09 1968.84 2752.33 1983.96 2814.97 2031.48C2877.61 2079 2883.01 2101.68 2943.49 2104.92C3003.97 2108.16 3030.97 2108.16 3068.77 2074.68C3106.57 2041.2 3109.81 2028.24 3160.57 1995.84C3211.33 1963.44 3251.29 1921.32 3300.97 1911.6C3350.65 1901.88 3384.13 1896.48 3447.85 1897.56C3511.57 1898.64 3603.37 1899.72 3669.25 1868.4C3735.13 1837.08 3755.65 1832.76 3874.45 1745.28C3993.25 1657.8 4010.53 1637.28 4041.85 1588.68C4073.17 1540.08 4142.29 1474.2 4183.33 1455.84C4224.37 1437.48 4285.93 1414.8 4317.25 1392.12C4348.57 1369.44 4348.57 1341.36 4379.89 1334.88C4411.21 1328.4 4509.49 1313.28 4588.33 1276.56C4667.17 1239.84 4740.61 1204.2 4785.97 1158.84C4831.33 1113.48 4869.13 1061.64 4883.17 1027.08C4897.21 992.52 4918.81 939.6 4922.05 901.8C4925.29 864 4939.33 759.24 4970.65 673.92C5001.97 588.6 5048.41 459 5085.13 399.6C5121.85 340.2 5151.01 291.6 5186.65 217.08C5222.29 142.56 5228.77 140.4 5242.81 89.64C5252.17 55.8 5257.93 25.92 5260.09 0"/>
</svg>
