<?xml version="1.0" standalone="no"?>
<!DOCTYPE svg PUBLIC "-//W3C//DTD SVG 20010904//EN" "http://www.w3.org/TR/2001/REC-SVG-20010904/DTD/svg10.dtd">
<!-- Created using Krita: https://krita.org -->
<svg xmlns="http://www.w3.org/2000/svg" 
    xmlns:xlink="http://www.w3.org/1999/xlink"
    xmlns:krita="http://krita.org/namespaces/svg/krita"
    xmlns:sodipodi="http://sodipodi.sourceforge.net/DTD/sodipodi-0.dtd"
    width="10200.2pt"
    height="13200.5pt"
    viewBox="0 0 10200.2 13200.5">
<defs/>
<path id="shape0" transform="translate(2594.06521481797, 3484.10947190294)" fill="none" stroke="#0046aa" stroke-width="18" stroke-linecap="round" stroke-linejoin="round" stroke-dasharray="18,36" d="M634.415 1745.97C651.724 1745.97 658.325 1760.81 668.975 1766.13C697.388 1780.34 730.237 1784.19 749.615 1803.57C753.935 1807.89 768.335 1802.13 772.655 1806.45C781.114 1814.91 816.581 1812.94 821.615 1817.97C843.804 1840.16 1026.74 1863.73 1066.41 1843.89C1103.62 1825.29 1156.73 1816.01 1193.13 1797.81C1208.59 1790.08 1215.26 1767.05 1227.69 1754.61C1248.89 1733.41 1279.71 1722.76 1302.57 1699.89C1317.31 1685.15 1324.81 1660.38 1337.13 1648.05C1350.37 1634.81 1368.04 1625.79 1383.21 1610.61C1398.68 1595.14 1397.46 1567.41 1412.01 1544.37C1441.37 1497.9 1452.5 1486.61 1475.37 1463.73C1479.38 1459.72 1481.16 1443.51 1484.01 1437.81C1493.11 1419.62 1505.36 1421.04 1512.81 1406.13C1516.53 1398.69 1518.61 1383.05 1524.33 1377.33C1541.27 1360.4 1584.62 1351.6 1602.09 1334.13C1611.69 1324.54 1616.66 1308.05 1628.01 1296.69C1645.44 1279.27 1681.04 1255.19 1697.13 1239.09C1698.57 1237.65 1695.69 1231.89 1697.13 1230.45C1713.26 1214.32 1724.05 1186.26 1743.21 1167.09C1748.3 1162.01 1765.62 1067.9 1757.61 1051.89C1751.02 1038.7 1738.48 1028.03 1731.69 1014.45C1727.4 1005.87 1737.45 1001.2 1737.45 997.17C1737.45 973.509 1739.66 940.914 1748.97 922.29C1768.54 883.16 1724.45 710.567 1702.89 689.01C1701.67 687.785 1702.47 672.583 1702.89 671.73C1711.59 654.339 1727.09 637.74 1737.45 622.77C1741.91 616.337 1737.42 576.654 1731.69 570.93C1726.71 565.95 1732.16 545.932 1728.81 539.25C1705.52 492.652 1682.04 462.633 1659.69 406.77C1656.27 398.213 1655.12 384.92 1648.17 377.97C1640.95 370.743 1626.98 365.414 1619.37 357.81C1603.68 342.115 1590.15 322.822 1573.29 305.97C1566.77 299.45 1550.08 297.155 1541.61 288.69C1518 265.078 1485.17 238.007 1460.97 213.81C1457.6 210.432 1458.84 197.271 1455.21 193.65C1438.33 176.766 1421.07 161.154 1406.25 138.93C1395.34 122.559 1394.53 98.4055 1380.33 84.2104C1367.94 71.8128 1347.85 60.3624 1334.25 46.7704C1330.54 43.0598 1317.32 44.0638 1311.21 41.0104C1298.07 34.4358 1281.44 25.6324 1273.77 17.9704C1268.65 12.8475 1153.57 11.4581 1149.93 15.0904C1145.07 19.9523 1132.2 25.3972 1124.01 29.4904C1115.4 33.799 1100.79 29.6753 1095.21 35.2504C1093.57 36.8994 991.544 32.3704 980.015 32.3704C965.063 32.3704 929.658 38.872 916.655 32.3704C901.102 24.594 859.181 35.3765 847.535 23.7304C834.731 10.9262 807.154 17.9398 789.935 9.3304C777.441 3.08371 748.205 -6.54036 735.215 6.4504C727.602 14.0628 651.181 4.08359 631.535 23.7304C608.604 46.6615 564.309 74.6235 527.855 92.8504C508.443 102.556 478.065 88.9452 458.735 98.6104C455.604 100.176 439.686 106.139 435.695 110.13C429.829 115.996 430.934 139.871 404.015 153.33C389.311 160.682 376.005 165.895 360.815 173.49C348.112 179.842 324.013 167.092 314.735 176.37C301.56 189.545 292.754 209.871 280.175 222.45C270.457 232.168 252.103 239.002 239.855 251.25C237.455 253.65 239.375 260.37 236.975 262.77C227.074 272.671 212.317 287.428 205.295 294.45C186.839 312.907 155.203 307.102 141.935 320.37C135.364 326.941 129.947 332.358 121.775 340.53C116.57 345.735 23.8134 624.838 10.8946 667.41C6.58492 679.133 8.1741 708.486 5.49469 739.77C2.81528 771.055 -4.32695 804.327 3.69469 833.01C6.8129 844.16 30.2706 862.267 32.4947 885.57C34.7187 908.873 15.7091 937.373 9.45469 995.73C-2.19306 1104.41 99.4546 1291.6 99.4546 1293.81"/><path id="shape1" transform="translate(2684.24442373807, 2490.47507496167)" fill="none" stroke="#0046aa" stroke-width="18" stroke-linecap="round" stroke-linejoin="round" stroke-dasharray="18,36" d="M28.7156 1328.4C28.7156 1315.31 33.2978 1303.86 37.3556 1291.68C43.5825 1273 44.8984 1145.83 39.5156 1129.68C35.7759 1118.47 40.1831 1106.44 37.3556 1095.12C29.3029 1062.91 22.2356 1033.62 22.2356 997.925C22.2356 983.137 32.1229 964.947 26.5556 948.245C22.6969 936.669 13.5956 908.068 13.5956 898.565C13.5956 882.094 11.0365 788.804 15.7556 784.085C24.359 775.481 43.5043 746.702 35.1956 730.085C7.77183 675.237 -17.3118 612.62 15.7556 546.485C19.6827 538.631 4.92025 473.08 24.3956 453.605C31.1971 446.803 23.8643 372.056 28.7156 367.205C46.772 349.148 96.4637 324.589 106.476 304.565C117.783 281.95 131.894 251.067 151.836 231.125C173.711 209.25 227.23 205.41 253.356 179.285C271.627 161.014 300.859 129.622 320.316 110.165C322.836 107.644 458.723 80.0923 465.036 86.4049C477.194 98.563 500.244 95.0449 521.196 95.0449C524.076 95.0449 527.799 97.0814 529.836 95.0449C551.505 73.3759 624.221 42.703 655.116 32.4049C672.725 26.5351 704.373 -0.41734 704.796 0.00490724C710.729 5.9379 717.484 23.6289 730.716 30.2449C783.559 56.6664 845.222 84.9693 905.676 95.0449C943.15 101.291 981.424 81.5821 1018 90.7249C1036.22 95.2822 1048.81 106.036 1067.68 112.325C1106.98 125.426 1148.58 129.934 1186.48 142.565C1195.59 145.604 1207.35 140.224 1216.72 142.565C1334.91 172.113 1516.8 123.125 1633.6 123.125C1685.63 123.125 1767.23 105.558 1802.08 140.405C1805.74 144.07 1821.73 176.911 1812.88 185.765C1801.15 197.487 1773.02 208.342 1763.2 218.165C1753.01 228.349 1742.25 245.595 1732.96 254.885C1698.49 289.35 1671.12 292.152 1646.56 341.285C1641.73 350.944 1610.7 409.111 1624.96 423.365C1631.34 429.748 1635.01 437.736 1642.24 444.965C1651.36 454.088 1666.19 447.223 1678.96 453.605C1765.46 496.859 1885.49 466.151 1968.4 507.605C1977.14 511.978 2003.28 512.251 2009.44 518.405C2055.03 563.999 2118.73 627.697 2164.96 673.925C2191.93 700.902 2202.58 746.106 2223.28 766.805C2232.22 775.751 2225.02 800.952 2231.92 807.845C2238.39 814.324 2248.46 836.569 2251.36 851.045C2254.67 867.624 2248.22 886.994 2253.52 902.885C2259.27 920.163 2275.3 1038.79 2262.16 1051.92C2260.36 1053.72 2224.43 1165.1 2218.96 1181.52C2203.17 1228.9 2183.29 1266.91 2167.12 1315.44C2160.65 1334.83 2158.48 1360.8 2149.84 1378.08C2129.02 1419.71 2115.28 1465.73 2115.28 1512"/><path id="shape2" transform="translate(3401.64017009278, 1111.29836979078)" fill="none" stroke="#0046aa" stroke-width="18" stroke-linecap="round" stroke-linejoin="round" stroke-dasharray="18,36" d="M0 1371.62C0 1367.86 28.6889 1361.06 32.76 1359.02C59.64 1345.58 56.1493 1352.19 77.3998 1330.94C117.337 1291 154.386 1242.44 192.6 1204.22C217.798 1179.02 237.83 1141.71 264.6 1114.94C275.552 1103.99 298.675 1098.15 310.68 1086.14C338.818 1058 326.161 975.62 351 950.782C370.024 931.757 384.904 913.998 399.96 898.942C413.478 885.424 448.025 871.036 463.32 855.742C483.904 835.158 508.943 815.879 529.56 795.262C536.308 788.514 536.631 765.15 543.96 757.822C557.667 744.115 579.452 740.926 601.56 729.022C671.773 691.215 798.111 630.391 840.6 587.902C846.63 581.872 900.14 512.021 903.96 504.382C919.329 473.643 929.721 441.18 952.92 417.982C960.332 410.569 976.123 412.058 981.72 406.462C1006.16 382.022 1115.97 328.048 1122.84 314.302C1129.85 300.289 1198.42 267.521 1209.24 256.702C1217.99 247.953 1297.61 196.085 1301.4 184.702C1303.24 179.169 1301.71 172.552 1304.28 167.422C1308.41 159.166 1318.95 158.511 1324.44 153.022C1339.09 138.376 1343.86 119.198 1356.12 106.942C1371.41 91.6465 1403.05 88.8146 1419.48 72.3816C1425.41 66.4553 1443.89 65.256 1448.28 60.8616C1471.67 37.4686 1523.91 37.0713 1549.08 11.9016C1553.06 7.91685 1553.49 3.93731 1560.6 0.381622C1562.32 -0.477028 1566.36 0.381622 1566.36 0.381622C1566.36 0.381622 1554.45 14.0023 1557.72 20.5416C1569.1 43.3085 1572.72 70.1042 1589.4 86.7816C1599.55 96.9297 1611.77 106.273 1623.96 118.462C1634 128.499 1641.36 150.26 1652.76 161.662C1667.01 175.909 1649.83 248.013 1658.52 256.702C1667.36 265.541 1668.05 278.633 1675.8 294.142C1683.76 310.055 1689.94 328.444 1698.84 337.342C1701.14 339.64 1697.33 348.72 1698.84 351.742C1716.17 386.401 1685.44 465.436 1667.16 492.862C1663.66 498.105 1666.61 516.451 1661.4 521.662C1656.24 526.823 1656.41 543.932 1649.88 550.462C1630.08 570.262 1621.99 598.514 1606.68 613.822C1601.8 618.706 1605.06 632.718 1600.92 636.862C1583.04 654.741 1571.48 686.462 1557.72 700.222C1525.67 732.267 1503.55 777.429 1477.08 803.902C1459.07 821.915 1339.27 942.575 1359 962.302C1386.28 989.583 1428.82 1023.48 1459.8 1054.46C1481.64 1076.3 1518.76 1087.5 1534.68 1103.42C1537.39 1106.13 1545.17 1114.68 1552.07 1118.12C1561.38 1122.78 1565.26 1138.95 1573.45 1147.14C1588.24 1161.94 1595.88 1161.74 1612.44 1178.3C1618.98 1184.84 1629.56 1185.42 1638.36 1189.82C1640.49 1190.89 1709.78 1241.08 1713.24 1244.54C1719.86 1251.16 1723.9 1269.6 1730.52 1276.22C1751.11 1296.81 1767.65 1322 1785.24 1339.58C1793.56 1347.91 1788.55 1374.57 1796.76 1382.78C1818.47 1404.49 1748.7 1596.98 1744.92 1604.54C1742.13 1610.13 1744.92 1624.36 1744.92 1630.46C1744.92 1646.12 1743.45 1661.33 1747.8 1676.54C1749.03 1680.85 1756.13 1691.56 1753.56 1696.7C1733.16 1737.5 1683.3 1792.88 1658.52 1817.66C1650.04 1826.14 1639.03 1877.48 1629.72 1886.78C1600.9 1915.6 1612.41 1904.46 1576.08 1940.78C1560.6 1956.26 1551.79 1972.05 1530.72 1995.86C1514.27 2022.79 1513.44 2050.31 1513.44 2083.34C1513.44 2103.5 1510.2 2173.7 1510.2 2153.54"/><path id="shape3" transform="translate(4002.47976118553, 1843.559890001)" fill="none" stroke="#0046aa" stroke-width="18" stroke-linecap="round" stroke-linejoin="round" stroke-dasharray="18,36" d="M0 0C13.6236 0 62.9711 75.1822 71.28 91.8C92.645 134.53 215.133 162.289 264.6 145.8C356.297 115.234 508.084 130.922 594 173.88C609.022 181.391 634.973 181.373 645.84 192.24C655.241 201.641 752.76 208.732 752.76 222.48"/><path id="shape4" transform="translate(3343.67997775955, 5287.67996482905)" fill="none" stroke="#0046aa" stroke-width="18" stroke-linecap="round" stroke-linejoin="round" stroke-dasharray="18,36" d="M0 0C27.7842 0 52.7807 67.1807 69.12 83.52C93.5044 107.904 112.152 140.952 135.36 164.16C153.697 182.497 175.21 189.61 192.96 207.36C199.702 214.102 200.35 232.03 207.36 239.04C213.244 244.924 269.376 319.008 270.72 319.68C285.485 327.063 337.757 401.913 348.48 423.36C365.198 456.795 358.877 635.847 342.72 668.16C340.032 673.536 345.408 682.944 342.72 688.32C322.108 729.543 284.546 830.598 302.4 884.16C310.096 907.247 313.92 1004.38 313.92 1033.92C313.92 1048.22 309.427 1072.28 313.92 1085.76C333.08 1143.24 353.93 1202.91 374.4 1264.32C380.402 1282.33 390.786 1290.44 397.44 1310.4C405.025 1333.16 415.912 1389.35 429.12 1402.56C432.391 1405.83 444.549 1496.78 452.16 1512C466.329 1540.34 491.442 1577.2 509.76 1595.52C516.159 1601.92 514.945 1620.87 524.16 1630.08C556.062 1661.98 571.897 1718.14 604.8 1751.04C631.701 1777.94 652.832 1775.06 685.44 1791.36C700.566 1798.92 700.436 1803.48 711.36 1814.4C721.729 1824.77 746.787 1823.91 754.56 1831.68C758.611 1835.73 857.917 1828.96 864 1825.92C907.016 1804.41 943.774 1783.59 982.08 1745.28C997.647 1729.71 1001.4 1702.92 1013.76 1690.56C1021.89 1682.43 1043.83 1623.05 1054.08 1612.8C1070.45 1596.43 1095.53 1561.59 1105.92 1540.8C1108.86 1534.92 1192.78 1445.3 1198.08 1440C1276.05 1362.03 1337.1 1254.12 1388.16 1152C1392.99 1142.33 1408.32 1137.27 1408.32 1126.08"/><path id="shape5" transform="translate(4129.91997252988, 4849.91996774081)" fill="none" stroke="#0046aa" stroke-width="18" stroke-linecap="round" stroke-linejoin="round" stroke-dasharray="18,36" d="M0 0C7.65113 0 19.9247 15.7224 28.8 20.16C73.7711 42.6455 133.009 52.3685 169.92 89.28C180.302 99.6617 183.629 123.149 195.84 135.36C240.549 180.069 300.242 193.682 348.48 241.92C363.518 256.958 368.369 299.249 383.04 313.92C407.415 338.295 423.781 377.701 443.52 397.44C455.113 409.033 468.608 413.888 478.08 423.36C481.44 426.72 492 422.88 495.36 426.24C521.551 452.431 589.814 423.067 619.2 437.76C686.5 471.41 814.396 481.282 884.16 446.4C898.624 439.168 933.587 448.813 944.64 437.76C951.691 430.709 1036.58 437.983 1042.56 432C1051.64 422.919 1109.65 426.382 1126.08 429.12C1145.02 432.276 1246.29 448.534 1249.92 452.16C1267.99 470.232 1285.67 493.67 1307.52 515.52C1318.87 526.869 1334.47 533.83 1342.08 541.44C1348.43 547.791 1348.9 562.658 1356.48 570.24C1376.89 590.654 1383.95 623.633 1399.68 639.36C1430.85 670.534 1449.86 706.823 1480.32 737.28C1485.26 742.224 1504.66 745.132 1512 748.8C1533.41 759.504 1930.32 833.044 1938.24 840.96C1939 841.722 2014.63 840.96 2021.76 840.96C2055.6 840.96 2078.45 825.904 2102.4 817.92C2112.73 814.476 2126.96 820.039 2136.96 815.04C2144.01 811.517 2178.06 808.496 2180.16 806.4C2187.28 799.282 2205.29 798.548 2211.84 792C2222.4 781.436 2231.41 775.306 2240.64 766.08C2259.45 747.267 2249.05 711.589 2263.68 696.96C2266.59 694.05 2302.86 672.782 2315.52 685.44C2330.96 700.882 2363.13 686.786 2373.12 676.8C2376.11 673.813 2442.96 684.004 2462.4 645.12C2470.05 629.814 2476.06 596.904 2488.32 584.64C2497.4 575.558 2485.97 546.67 2494.08 538.56C2502.88 529.761 2516.45 524.827 2522.88 518.4C2532.54 508.74 2644.71 537.69 2658.24 524.16C2671.51 510.892 2694.04 482.604 2707.2 469.44C2709.12 467.52 2705.28 459.84 2707.2 457.92C2717.7 447.419 2727.29 432.073 2736 423.36C2750.41 408.954 2732.21 317.707 2747.52 302.4C2754.97 294.947 2768.54 284.258 2776.32 276.48C2777.87 274.932 2753.63 212.766 2770.56 195.84C2812.82 153.579 2887.37 217.274 2903.04 201.6C2922.3 182.336 2955.09 175.475 2975.04 155.52C2978.32 152.236 2993.71 154.826 2998.08 152.64C3099.07 102.147 3219.84 132.48 3337.92 132.48"/><path id="shape6" transform="translate(4729.07943213676, 3993.83997343502)" fill="none" stroke="#0046aa" stroke-width="18" stroke-linecap="round" stroke-linejoin="round" stroke-dasharray="18,36" d="M68.2805 0C68.2805 32.2385 56.0925 76.2161 44.5205 99.36C37.2579 113.885 49.6694 138.742 42.3605 153.36C18.1882 201.705 27.4927 286.271 14.2805 339.12C8.89909 360.646 -6.9584 465.122 3.48054 486C7.77045 494.58 3.7107 508.06 7.80054 516.24C22.9196 546.478 29.626 633.782 40.2005 676.08C51.8117 722.525 62.4049 759.973 79.0805 810C84.5069 826.279 75.3028 849.965 83.4005 866.16C101.57 902.498 98.5205 1013.91 98.5205 1062.72C98.5205 1074.71 93.4432 1100.09 98.5205 1110.24C108.783 1130.77 107.161 1280.15 107.161 1319.76"/><path id="shape7" transform="translate(5146.55996576772, 2772.35075479044)" fill="none" stroke="#0046aa" stroke-width="18" stroke-linecap="round" stroke-linejoin="round" stroke-dasharray="18,36" d="M0 52.9292C18.5467 34.3825 37.5149 34.1718 63.36 21.2492C80.4653 12.6966 124.451 21.2492 144 21.2492C214.368 21.2492 275.594 3.96923 354.24 3.96923C368.155 3.96923 469.149 -4.96153 478.08 3.96923C481.334 7.22343 564.536 6.8773 576 12.6092C590.732 19.9752 662.428 21.2777 665.28 24.1292C677.001 35.8499 798.325 45.8705 826.56 52.9292C867.287 63.1111 975.28 169.969 1010.88 205.569C1028.73 223.415 1054.41 237.582 1071.36 254.529C1091.45 274.617 1100.73 309.815 1120.32 329.409C1131.97 341.057 1182.64 384.926 1189.44 398.529C1193.58 406.799 1186.47 418.597 1192.32 424.449C1225.2 457.334 1264.75 502.643 1298.88 536.769C1301.94 539.832 1300.66 564.259 1301.76 568.449C1306.71 587.25 1361.4 743.291 1382.4 764.289C1418.41 800.301 1467.51 836.589 1488.96 879.489C1496.43 894.437 1509.52 986.452 1512 988.929C1524.02 1000.95 1530.16 1061.81 1535.04 1066.69C1551.95 1083.6 1558.55 1124.75 1563.84 1130.05C1573.45 1139.66 1576.75 1163.12 1586.88 1173.25C1596.7 1183.07 1609.09 1195.46 1618.56 1204.93C1628.93 1215.3 1707.46 1227.59 1722.24 1242.37C1726.61 1246.73 1730.97 1259.74 1736.64 1265.41C1740.48 1269.25 1750.08 1267.33 1753.92 1271.17C1772.3 1289.55 1806.45 1300.66 1823.04 1317.25C1868.88 1363.09 1916.7 1392.88 1978.56 1423.81C1988.98 1429.02 2007.16 1429.52 2018.88 1432.45C2049.45 1440.09 2089.79 1459.93 2128.32 1472.77C2148.92 1479.63 2168.24 1492.53 2183.04 1507.33C2201.78 1526.07 2234.67 1524.4 2252.16 1541.89C2276.28 1566.01 2312.05 1584.49 2335.68 1608.13C2349.44 1621.89 2357.54 1658.79 2370.24 1671.49C2372.64 1673.89 2367.84 1683.49 2370.24 1685.89C2373.81 1689.46 2392.77 1817.01 2387.52 1832.77C2378.85 1858.78 2367.36 1884.6 2358.72 1910.53C2354.47 1923.27 2354.13 1949.68 2344.32 1959.49C2336.95 1966.86 2339.47 2026.78 2332.8 2040.13C2325.88 2053.98 2320.25 2209.01 2321.28 2210.05"/><path id="shape8" transform="translate(4348.79986071843, 4236.47986431576)" fill="none" stroke="#0046aa" stroke-width="18" stroke-linecap="round" stroke-linejoin="round" stroke-dasharray="18,36" d="M0 296.64C7.68 296.64 -0.96 295.68 2.88 299.52C20.2183 316.858 50.7665 327.247 66.24 342.72C68.0668 344.547 75.3621 341.521 77.76 342.72C134.507 371.094 196.208 355.323 253.44 374.4C296.788 388.849 366.779 365.251 400.32 348.48C417.093 340.093 439.908 342.964 457.92 336.96C467.819 333.66 545.919 341.121 550.08 336.96C559.189 327.851 831.978 330.858 843.84 342.72C858.793 357.673 889.575 352.628 910.08 362.88C950.999 383.34 999.568 379.269 1045.44 394.56C1066.08 401.439 1092.17 393.445 1111.68 403.2C1125.38 410.052 1148.89 398.323 1163.52 403.2C1171.89 405.99 1250.19 402.93 1252.8 400.32C1260.87 392.247 1328.81 381.035 1347.84 371.52C1399.36 345.762 1477.08 330.697 1546.56 316.8C1561.18 313.876 1578.19 317.533 1592.64 313.92C1623.11 306.303 1661.62 292.848 1693.44 282.24C1725.41 271.584 1842.99 239.245 1857.6 224.64C1861.01 221.235 1946.82 200.192 1961.28 192.96C1980.27 183.466 2008.72 185.785 2030.4 178.56C2093.04 157.68 2168.35 139.295 2232 118.08C2273.49 104.249 2419.07 89.4135 2436.48 72C2444.64 63.84 2474.4 77.28 2482.56 69.12C2505.3 46.3825 2690.93 19.1526 2692.8 17.28C2698.42 11.6568 2764.87 22.9733 2770.56 17.28C2779.82 8.01976 2882.54 0 2900.16 0"/><path id="shape9" transform="translate(4052.15999098287, 2963.51999340539)" fill="none" stroke="#0046aa" stroke-width="18" stroke-linecap="round" stroke-linejoin="bevel" stroke-dasharray="18,36" d="M0 728.64C62.8509 728.64 126.728 619.192 167.04 578.88C211.014 534.906 272.844 496.116 308.16 460.8C329.75 439.21 340.821 399.339 365.76 374.4C373.286 366.874 371.52 280.649 371.52 259.2C371.52 245.961 364.906 159.254 365.76 158.4C371.979 152.181 398.664 30.0239 385.92 17.28C382.125 13.4851 380.16 7.55993 380.16 0"/><path id="shape10" transform="translate(4330.79999036284, 3959.27999118957)" fill="none" stroke="#0046aa" stroke-width="18" stroke-linecap="round" stroke-linejoin="round" stroke-dasharray="18,36" d="M0 142.56C0 129.345 41.1586 103.621 54 97.2C58.2161 95.0919 70.2682 100.372 73.44 97.2C83.6759 86.9641 124.406 93.8912 140.4 88.56C164.772 80.4359 183.961 84.0595 205.2 73.44C235.664 58.2079 263.103 39.3954 298.08 32.4C311.134 29.7891 336.274 30.9264 343.44 23.76C344.435 22.7654 425.039 7.80067 432 4.32C440.096 0.271878 483.777 0 470.88 0"/><path id="shape11" transform="translate(4919.03981536155, 3547.34984208138)" fill="none" stroke="#0046aa" stroke-width="18" stroke-linecap="round" stroke-linejoin="round" stroke-dasharray="18,36" d="M0 69.93C0 61.2767 13.264 59.546 20.16 52.65C67.2927 5.51734 204.706 0.810025 290.88 0.810025C300.473 0.810025 386.977 -1.01253 388.8 0.810025C397.274 9.28373 644.057 10.3585 682.56 29.61C687.936 32.298 697.344 26.922 702.72 29.61C767.508 62.0039 1063.77 96.4593 1152 67.05C1161.8 63.7841 1177.39 71.6348 1186.56 67.05C1205.09 57.7869 1403.23 60.1833 1416.96 67.05C1444.89 81.0138 1517.52 68.3702 1537.92 78.57C1560.97 90.0943 1630.54 107.831 1647.36 124.65C1651.52 128.81 1667.64 127.592 1673.28 130.41C1689.73 138.635 1711.28 162.09 1728 162.09"/><path id="shape12" transform="translate(4660.32179027226, 5313.59996465666)" fill="none" stroke="#0046aa" stroke-width="18" stroke-linecap="round" stroke-linejoin="round" stroke-dasharray="18,36" d="M175.918 0C158.351 35.1297 185.291 93.5738 169.438 125.28C153.537 157.082 132.13 218.748 108.958 241.92C106.798 244.08 111.118 252.72 108.958 254.88C90.5023 273.336 88.7253 309.673 70.078 328.32C67.918 330.48 72.238 339.12 70.078 341.28C48.593 362.765 55.7354 404.525 39.838 436.32C28.8762 458.244 74.8974 540.499 83.038 548.64C85.6468 551.249 83.038 570.463 83.038 574.56C83.038 620.861 72.1304 628.667 48.478 652.32C41.1519 659.646 21.2442 662.274 13.918 669.6C9.71547 673.802 8.2164 692.581 0.958035 699.84C-1.19754 701.995 0.958035 718.057 0.958035 721.44C0.958035 788.695 54.489 826.811 91.678 864C92.8565 865.178 91.678 961.443 91.678 972C91.678 1004.16 102.717 1094.16 88.798 1108.08C87.7798 1109.1 119.038 1131.84 119.038 1133.28C119.038 1173.47 177.767 1202.3 162.958 1231.92C157.09 1243.66 168.818 1261.34 169.438 1286.64C168.42 1287.66 191.758 1345.68 191.758 1347.12C191.758 1352.56 194.063 1373.1 198.69 1377.72C209.512 1388.55 197.066 1385.98 209.89 1405.22C213.294 1410.32 222.062 1425.02 224.655 1427.62C230.029 1435.03 240.147 1444.85 241.456 1447.47C244.476 1453.51 252.916 1455.88 256.729 1459.69C260.253 1463.22 262.73 1465.75 268.948 1468.86C284.313 1484.94 274.701 1473.26 280.149 1485.15C288.204 1501.14 268.627 1481.59 286.078 1499.04C294.74 1507.7 302.338 1536.9 303.358 1537.92C314.036 1548.6 324.078 1584.56 324.958 1585.44C328.572 1589.05 338.154 1594.32 342.238 1598.4C344.271 1600.43 350.44 1636.84 350.878 1637.28C359.518 1645.92 368.158 1654.56 376.798 1663.2C381.72 1668.12 396.213 1664.27 402.718 1667.52C417.269 1674.8 436.168 1675.6 454.558 1684.8C480.234 1697.64 549.842 1671.96 575.518 1684.8C615.622 1704.85 653.568 1728.29 679.198 1753.92C681.234 1755.96 686.55 1751.34 687.838 1753.92C691.559 1761.36 699.719 1774.44 705.118 1779.84C719.697 1794.42 752.552 1805.67 769.918 1823.04C784.545 1837.67 822.676 1836.92 834.718 1848.96C839.138 1853.38 976.467 1843.83 977.278 1844.64C995.015 1862.38 1056.06 1832.7 1076.64 1853.28C1086.72 1863.36 1101.12 1869.12 1111.2 1879.2C1113.23 1881.24 1117.8 1877.16 1119.84 1879.2C1125.78 1885.14 1133.12 1896.8 1141.44 1905.12C1143.6 1907.28 1139.28 1915.92 1141.44 1918.08C1157.63 1934.27 1153.87 2001.21 1141.44 2026.08C1139.17 2030.61 1144.89 2044.23 1141.44 2047.68C1129.03 2060.09 1098.24 2120.11 1098.24 2134.08"/><path id="shape13" transform="translate(3120.47988072749, 5674.86308356885)" fill="none" stroke="#0046aa" stroke-width="18" stroke-linecap="round" stroke-linejoin="round" stroke-dasharray="18,36" d="M0 135.537C88.7046 135.537 75.5654 115.034 139.68 82.9767C160.923 72.3551 229.048 54.0885 249.12 34.0167C258.501 24.6357 325.044 16.5747 342 8.0967C390.485 -16.1459 484.818 21.7767 539.28 21.7767C543.873 21.7767 555.84 18.3703 555.84 15.2967"/><path id="shape14" transform="translate(1654.55998606834, 7011.35994096322)" fill="none" stroke="#0046aa" stroke-width="18" stroke-linecap="round" stroke-linejoin="round" stroke-dasharray="18,36" d="M0 2073.6C3.94433 2073.6 15.2943 2068.11 21.6 2064.96C30.9811 2060.27 149.61 2062.23 159.84 2052C178.079 2033.76 210.667 2022.77 228.96 2004.48C231.953 2001.49 247.567 2003.15 250.56 2000.16C272.213 1978.51 299.257 1960.1 319.68 1939.68C326.997 1932.36 340.511 1934.18 349.92 1931.04C367.698 1925.11 375.83 1913.77 384.48 1905.12C392.699 1896.9 417.271 1901.68 427.68 1896.48C440.375 1890.13 485.289 1877.75 492.48 1870.56C497.969 1865.07 504.214 1855.25 514.08 1853.28C551.94 1845.71 581.347 1834.77 613.44 1818.72C631.587 1809.65 640.348 1796.13 652.32 1784.16C656.712 1779.77 674.746 1774.69 682.56 1766.88C686.714 1762.73 727.817 1723.89 730.08 1719.36C731.389 1716.74 732.59 1708.21 734.4 1706.4C737.054 1703.75 744.467 1703.55 747.36 1697.76C761.21 1670.06 772.931 1637.63 794.88 1615.68C796.615 1613.94 794.066 1605.16 794.88 1602.72C798.163 1592.87 817.884 1523.56 820.8 1520.64C828.728 1512.71 832.948 1499.85 842.4 1490.4C844.56 1488.24 840.24 1479.6 842.4 1477.44C872.893 1446.95 888.115 1349.41 920.16 1296C931.157 1277.67 932.21 1258.03 941.76 1248.48C944.819 1245.42 950.474 1213.85 959.04 1205.28C961.037 1203.28 957.736 1194.93 959.04 1192.32C977.698 1155 976.491 1122.86 993.6 1088.64C1001.76 1072.33 993.413 1054.45 1002.24 1036.8C1005.88 1029.52 1001.38 1020.38 1006.56 1015.2C1013.87 1007.89 1034.12 1004.92 1041.12 997.92C1069.86 969.178 1103.96 948.041 1136.16 915.84C1138.2 913.804 1142.76 917.876 1144.8 915.84C1149.22 911.42 1148.2 895.158 1153.44 889.92C1177.17 866.19 1188.79 841.614 1209.6 820.8C1214.64 815.76 1213.2 804.24 1218.24 799.2C1221.83 795.607 1234.56 791.519 1239.84 786.24C1241.88 784.204 1237.8 779.636 1239.84 777.6C1242.34 775.096 1254.62 771.464 1257.12 768.96C1270.1 755.978 1280.47 745.606 1291.68 734.4C1293.12 732.96 1303.2 731.52 1304.64 730.08C1317.14 717.576 1329.88 700.52 1343.52 686.88C1347.77 682.633 1362.95 677.165 1369.44 673.92C1375.39 670.943 1375.25 663.788 1378.08 660.96C1383.13 655.911 1398.54 653.463 1404 648C1409.04 642.96 1411.92 635.76 1416.96 630.72C1420.56 627.12 1430.64 630 1434.24 626.4C1452.3 608.337 1474.22 599.378 1490.4 583.2C1501.81 571.791 1560.48 552.004 1568.16 544.32C1580.1 532.385 1620.09 514.037 1637.28 505.44C1640.53 503.817 1656.22 503.78 1658.88 501.12C1672.41 487.59 1701.62 477.592 1723.68 466.56C1736.52 460.142 1747.17 447.393 1753.92 440.64C1759.07 435.486 1800.01 416.154 1814.4 401.76C1820.62 395.536 1834.18 394.945 1840.32 388.8C1856.62 372.504 1879.3 358.464 1896.48 341.28C1900.21 337.552 1905.96 323.16 1909.44 319.68C1914.8 314.318 1923.52 318.562 1926.72 315.36C1927.78 314.297 1933.22 293.724 1935.36 289.44C1942.83 274.504 1961.98 258.499 1969.92 250.56C1975.31 245.173 1975.59 227.613 1982.88 220.32C2006.05 197.149 2021.5 160.35 2034.72 133.92C2040.4 122.554 2069.6 103.357 2077.92 95.04C2079.96 93.0035 2084.52 97.0765 2086.56 95.04C2092.3 89.3009 2103.63 73.6532 2112.48 64.8C2121.67 55.6091 2160.02 47.5031 2172.96 34.56C2176.61 30.9079 2216.77 25.3078 2229.12 12.96C2231.3 10.7842 2261.5 6.49577 2263.68 4.32C2264.7 3.30177 2263.68 1.44 2263.68 0"/><path id="shape15" transform="translate(2321.99984204641, 8674.55940991477)" fill="none" stroke="#0046aa" stroke-width="18" stroke-linecap="round" stroke-linejoin="round" stroke-dasharray="18,36" krita:marker-fill-method="auto" d="M0 110.16C0 140.364 68.1767 220.928 92.88 233.28C121.588 247.634 188.605 275.005 211.68 298.08C231.444 317.844 249.253 333.493 265.68 349.92C270.094 354.334 323.914 440.467 328.32 449.28C332.987 458.614 333.698 469.778 341.28 477.36C355.395 491.475 376.105 499.225 390.96 514.08C423.962 547.082 566.509 543.404 615.6 527.04C634.817 520.634 691.293 511.827 704.16 498.96C736.709 466.411 777.76 429.733 816.48 403.92C845.468 384.594 864.056 345.544 892.08 317.52C914.736 294.864 946.086 265.674 967.68 244.08C984.773 226.987 1004.48 216.666 1021.68 205.2C1048.01 187.646 1069.65 163.707 1086.48 146.88C1101.28 132.08 1107.42 108.655 1121.04 95.04C1145.54 70.5363 1167.65 34.2133 1181.52 6.48C1182.76 4.009 1183.48 0 1185.84 0"/><path id="shape16" transform="translate(3507.83976137988, 8674.55940991477)" fill="none" stroke="#0046aa" stroke-width="18" stroke-linecap="round" stroke-linejoin="round" stroke-dasharray="18,36" d="M0 0C5.9873 0 12.2469 12.2469 15.12 15.12C29.7027 29.7027 63.3402 44.6004 75.6 69.12C82.1568 82.2336 109.859 129.299 123.12 142.56C142.723 162.163 155.365 192.085 177.12 213.84C224.346 261.066 300.749 317.69 365.04 339.12C377.886 343.402 406.582 373.68 410.4 373.68"/><path id="shape17" transform="translate(3330.71977342843, 8856.23992590312)" fill="none" stroke="#0046aa" stroke-width="18" stroke-linecap="round" stroke-linejoin="round" stroke-dasharray="18,36" d="M0 25.6795C16.326 25.6795 54.8788 12.2801 71.28 4.07947C95.5828 -8.07192 269.346 9.90561 278.64 19.1995C285.212 25.7712 356.4 28.4941 356.4 40.7995"/><path id="shape18" transform="translate(1205.96817109022, 9093.59992343045)" fill="none" stroke="#0046aa" stroke-width="18" stroke-linecap="round" stroke-linejoin="round" stroke-dasharray="18,36" d="M444.272 0C444.272 11.3399 441.324 20.2276 435.632 25.92C434.123 27.4291 435.632 150.644 435.632 164.16C435.632 204.044 428.59 244.641 405.392 267.84C401.792 271.44 404.672 281.52 401.072 285.12C398.799 287.393 385.897 296.086 383.792 302.4C381.756 308.507 379.487 319.665 375.152 324C370.832 328.32 362.192 328.32 357.872 332.64C354.604 335.907 347.362 351.79 340.592 358.56C338.782 360.37 330.25 361.571 327.632 362.88C318.905 367.243 287.438 403.074 280.112 410.4C278.075 412.436 282.148 417.004 280.112 419.04C251.712 447.44 223.551 492.881 198.032 518.4C182.011 534.421 171.043 566.989 154.832 583.2C151.232 586.8 154.112 596.88 150.512 600.48C148.475 602.516 143.908 598.444 141.872 600.48C135.759 606.593 125.182 634.45 115.952 643.68C113.792 645.84 118.112 654.48 115.952 656.64C107.014 665.578 116.301 642.981 107.312 660.96C98.4781 678.627 103.21 708.262 90.0318 721.44C82.0137 729.458 81.3918 837.251 81.3918 859.68C81.3918 861.12 80.3736 862.982 81.3918 864C100.511 883.119 126.568 972.367 107.312 1010.88C101.766 1021.97 110.673 1033.44 102.992 1041.12C99.4672 1044.64 104.433 1095.84 98.6718 1101.6C94.3518 1105.92 98.6718 1118.88 94.3518 1123.2C84.8529 1132.7 81.3909 1170.72 77.0718 1175.04C53.1613 1198.95 56.4909 1256.1 29.5518 1283.04C26.8986 1285.69 9.60246 1380.75 3.63182 1386.72C1.64872 1388.7 -3.44015 1479.01 3.63182 1486.08C19.9293 1502.38 65.6539 1495.49 81.3918 1503.36C152.554 1538.94 258.128 1458.19 306.032 1434.24C321.743 1426.38 337.65 1424.22 349.232 1412.64C354.017 1407.86 388.913 1411.84 396.752 1404C406.448 1394.3 444.473 1410.38 457.232 1404C486.525 1389.35 543.794 1412.56 569.552 1399.68C582.432 1393.24 600.261 1397.29 612.752 1391.04C616.354 1389.24 650.468 1374.92 651.632 1373.76C660.57 1364.82 637.973 1374.11 655.952 1365.12C661.159 1362.52 669.401 1364.63 673.232 1360.8C706.412 1327.62 741.396 1292.64 768.272 1265.76C780.779 1253.25 803.847 1191.3 811.472 1183.68C820.41 1174.74 811.122 1197.34 820.112 1179.36C841.124 1137.34 870.104 1072.28 915.152 1049.76C921.694 1046.49 931.514 1052.33 936.752 1054.08C943.254 1056.25 962.625 1054.03 966.992 1058.4C979.952 1071.36 1001.55 1075.68 1014.51 1088.64C1016.55 1090.68 1021.12 1086.6 1023.15 1088.64C1039.66 1105.15 1059.47 1124.95 1074.99 1140.48C1083.05 1148.54 1119.05 1149.55 1135.47 1157.76C1174.7 1177.37 1266.72 1130.19 1282.35 1114.56C1290.27 1106.64 1376.72 1110.24 1394.67 1110.24C1406.19 1110.24 1432.12 1105.2 1442.19 1110.24C1479.42 1128.85 1540.39 1130.67 1567.47 1157.76C1569.51 1159.8 1574.08 1155.72 1576.11 1157.76C1603.86 1185.51 1621.79 1212.07 1645.23 1235.52C1647.39 1237.68 1643.07 1246.32 1645.23 1248.48C1660.8 1264.04 1659.08 1296.89 1671.15 1308.96C1674.21 1312.01 1671.15 1334.4 1671.15 1339.2C1671.15 1347.46 1676.41 1385.78 1671.15 1391.04C1667.03 1395.17 1663.13 1407.71 1658.19 1412.64C1635.24 1435.59 1610.76 1455.8 1576.11 1473.12C1569.22 1476.56 1551.19 1472.13 1545.87 1477.44C1525.37 1497.94 1427.55 1494.72 1390.35 1494.72C1296.53 1494.72 1131.31 1494.56 1079.31 1546.56C1070.26 1555.61 1039.52 1556.12 1031.79 1563.84C1019.51 1576.12 1003.11 1583.88 992.912 1594.08C990.752 1596.24 982.112 1591.92 979.952 1594.08C942.163 1631.87 875.379 1651.13 841.712 1684.8C839.552 1686.96 830.912 1682.64 828.752 1684.8C817.621 1695.93 793.244 1703.03 781.232 1715.04C779.072 1717.2 770.432 1712.88 768.272 1715.04C757.873 1725.44 709.699 1739.05 707.792 1740.96C697.859 1750.89 682.78 1748.69 673.232 1758.24C664.294 1767.18 686.891 1757.89 668.912 1766.88C666.336 1768.17 662.308 1764.84 660.272 1766.88C638.62 1788.53 629.645 1836.39 608.432 1857.6C605.552 1860.48 611.312 1872 608.432 1874.88C592.474 1890.84 574.883 2006.5 591.152 2039.04C602.829 2062.39 648.473 2139.56 664.592 2155.68C672.412 2163.5 669.608 2186.62 677.552 2194.56C685.825 2202.83 679.889 2315.87 686.192 2328.48C691.244 2338.59 693.136 2352.7 699.152 2358.72C702.032 2361.6 696.272 2373.12 699.152 2376C702.239 2379.09 712.112 2388.39 712.112 2393.28"/><path id="shape19" transform="translate(2727.3599770352, 10959.0661472674)" fill="none" stroke="#0046aa" stroke-width="18" stroke-linecap="round" stroke-linejoin="round" stroke-dasharray="18,36" d="M0 644.454C4.38881 644.454 70.088 571.486 74.88 566.694C91.7694 549.804 122.005 548.369 141.12 529.254C162.687 507.687 229.571 421.471 241.92 396.774C247.942 384.729 246.217 368.02 253.44 353.574C278.757 302.941 332.53 151.309 388.8 123.174C405.896 114.626 418.766 100.562 443.52 94.3738C458.24 90.6937 474.052 89.1878 486.72 82.8538C513.845 69.291 718.686 96.4709 745.92 82.8538C756.984 77.322 773.612 77.6475 786.24 71.3338C884.449 22.2292 985.082 2.21376 1103.04 2.21376C1114.71 2.21376 1139.16 -2.7672 1149.12 2.21376C1172.59 13.951 1251.7 28.1338 1281.6 28.1338"/><path id="shape20" transform="translate(2874.23989013942, 9373.52779097975)" fill="none" stroke="#0046aa" stroke-width="18" stroke-linecap="round" stroke-linejoin="round" stroke-dasharray="18,36" d="M0 1109.67C0 1100.9 55.5836 1031.05 69.12 1017.51C77.5969 1009.03 101.627 995.498 115.2 988.712C124.113 984.255 142.603 987.229 149.76 980.072C172.907 956.924 224.812 958.386 256.32 942.632C346.625 897.479 477.282 882.949 552.96 807.272C584.783 775.449 628.207 710.762 639.36 666.152C653.905 607.97 660.014 573.498 696.96 536.552C712.399 521.112 741.751 506.161 757.44 490.472C762.304 485.607 775.701 486.611 780.48 481.832C785.32 476.992 895.471 467.64 910.08 453.032C920.033 443.079 932.353 440.455 947.52 432.872C957.998 427.633 989.489 422.583 999.36 412.712C1021.92 390.156 1069.14 369.182 1108.8 349.352C1131.16 338.17 1147.73 319.807 1169.28 309.032C1175.45 305.949 1216.85 259.976 1221.12 251.432C1224.63 244.409 1234.94 243.371 1238.4 239.912C1313.79 164.517 1420.41 43.2101 1520.64 18.1519C1538.99 13.5655 1560.18 21.2917 1578.24 15.2719C1592.94 10.3722 1614.29 6.63185 1630.08 6.63185C1632.34 6.63185 1643.04 8.0689 1644.48 6.63185C1650.98 0.128647 1809.65 -2.94157 1823.04 3.75185C1833.9 9.18214 1886.51 15.3828 1889.28 18.1519C1898.33 27.2033 1960.67 38.8784 1981.44 44.0718C2023.5 54.5873 2062.36 48.9645 2099.52 61.3518C2125.65 70.0634 2158.85 58.8177 2185.92 64.2318C2305.07 88.0621 2421.09 64.2318 2540.16 64.2318C2586.42 64.2318 2694.71 66.6287 2730.24 84.3918C2738.83 88.6883 2815.84 91.8053 2836.8 98.7918C2851.6 103.724 2874.83 91.8858 2888.64 98.7918C2924.07 116.505 3000.02 104.552 3041.28 104.552"/><path id="shape21" transform="translate(3918.2397334625, 9047.98159593757)" fill="none" stroke="#0046aa" stroke-width="18" stroke-linecap="round" stroke-linejoin="round" stroke-dasharray="18,36" d="M0 0.257789C6.24538 -2.86443 60.5563 23.3361 67.6801 26.8981C88.7638 37.4399 117.709 34.6327 136.8 44.1781C157.713 54.6347 193.63 39.4729 214.56 49.9381C237.053 61.1843 320.518 75.2559 332.64 87.3781C344.258 98.9961 367.102 104.56 378.72 116.178C436.77 174.227 516.645 208.023 571.68 263.058C579.005 270.383 693.376 323.538 701.28 323.538"/><path id="shape22" transform="translate(4229.27996148313, 7410.79993243618)" fill="none" stroke="#0046aa" stroke-width="18" stroke-linecap="round" stroke-linejoin="round" stroke-dasharray="18,36" d="M0 1710.88C13.5574 1710.88 40.0393 1716.78 51.84 1710.88C112.296 1680.65 186.721 1662.4 237.6 1611.52C245.087 1604.03 248.587 1591.89 259.2 1581.28C263.117 1577.36 272.826 1575.63 276.48 1568.32C286.636 1548.01 292.232 1532.5 302.4 1512.16C320.041 1476.88 280.8 1379.58 280.8 1348C280.8 1273.49 294.247 1252.47 341.28 1205.44C345.541 1201.18 346.772 1191.31 349.92 1188.16C351.917 1186.16 348.616 1177.81 349.92 1175.2C356.887 1161.27 364.757 1143.08 371.52 1136.32C371.604 1136.24 375.505 1084.81 384.48 1075.84C389.744 1070.58 379.488 1012.38 384.48 1002.4C397.559 976.243 416.254 892.866 432 877.12C439.2 869.92 429.12 845.44 436.32 838.24C446.362 828.198 435.126 774.634 440.64 769.12C447.056 762.704 455.003 724.517 457.92 721.6C463.163 716.357 462.291 708.538 466.56 700C482.916 667.287 499.533 610.867 527.04 583.36C529.037 581.363 525.736 573.008 527.04 570.4C533.065 558.35 550.084 499.836 552.96 496.96C561.459 488.461 564.193 477.087 574.56 466.72C586.999 454.281 607.021 447.219 617.76 436.48C622.636 431.604 641.062 400.218 643.68 397.6C650.98 390.3 662.84 387.08 669.6 380.32C671.04 378.88 672.48 368.8 673.92 367.36C689.816 351.464 812.776 315.52 851.04 315.52C862.966 315.52 970.733 312.467 972 311.2C993.384 289.816 1041.04 293.961 1067.04 280.96C1112.37 258.293 1176.87 248.886 1205.28 220.48C1209 216.758 1222.18 218.511 1226.88 216.16C1286.93 186.137 1318.08 154.301 1378.08 116.8C1409.13 97.3921 1445.7 87.3086 1473.12 73.6C1507.95 56.1866 1508.85 29.2251 1533.6 4.48C1539.36 -1.28 1526.4 0.16 1537.92 0.16"/><path id="shape23" transform="translate(5915.25158534087, 7637.75993044144)" fill="none" stroke="#0046aa" stroke-width="18" stroke-linecap="round" stroke-linejoin="round" stroke-dasharray="18,36" d="M0.268189 1840.32C-4.58331 1811.21 57.7544 1739.75 76.5884 1702.08C96.1931 1662.87 135.623 1560.97 158.668 1537.92C162.934 1533.65 164.267 1506.4 171.628 1499.04C173.068 1497.6 183.148 1496.16 184.588 1494.72C186.625 1492.68 182.552 1488.12 184.588 1486.08C186.625 1484.04 191.192 1488.12 193.228 1486.08C199.75 1479.56 208.012 1466.98 214.828 1460.16C235.582 1439.41 329.742 1399.76 361.708 1391.04C377.231 1386.81 403.725 1389.47 417.868 1382.4C453.995 1364.34 510.39 1350.36 538.828 1321.92C546.095 1314.65 562.598 1315.43 573.388 1304.64C578.269 1299.76 621.093 1287.18 638.188 1270.08C644.214 1264.05 665.017 1260.53 672.748 1252.8C685.548 1240 702.761 1231.43 715.948 1218.24C718.78 1215.41 731.064 1216.08 733.228 1213.92C747.138 1200.01 792.701 1164.1 798.028 1153.44C804.736 1140.03 807.387 1135.44 815.308 1127.52C820.861 1121.97 834.22 1065.41 836.908 1062.72C846.417 1053.21 858.159 1011.23 862.828 1006.56C884.261 985.127 901.024 943.128 914.668 915.84C924.825 895.527 976.032 857.03 979.468 846.72C980.379 843.988 977.432 840.116 979.468 838.08C981.505 836.044 985.532 839.368 988.108 838.08C994.814 834.727 1001.05 820.816 1005.39 816.48C1007.42 814.444 1011.99 818.516 1014.03 816.48C1038.29 792.214 1076.66 759.245 1109.07 743.04C1141.08 727.036 1149.97 693.5 1169.55 673.92C1180.1 663.372 1195.78 652.008 1208.43 639.36C1212.03 635.76 1222.11 638.64 1225.71 635.04C1240.92 619.833 1262.59 614.437 1281.87 604.8C1293.92 598.774 1303.27 583.4 1312.11 574.56C1314.14 572.524 1318.71 576.596 1320.75 574.56C1337.39 557.917 1359.95 544 1376.91 527.04C1383.11 520.835 1399.69 521.533 1407.15 514.08C1410.03 511.2 1408.59 504 1411.47 501.12C1412.91 499.68 1422.99 498.24 1424.43 496.8C1431.81 489.419 1438.81 468.046 1446.03 453.6C1449.21 447.229 1441.19 428.203 1446.03 423.36C1452.51 416.88 1461.15 412.56 1467.63 406.08C1471.23 402.48 1464.03 388.08 1467.63 384.48C1478.43 373.68 1482.75 356.4 1493.55 345.6C1494.54 344.607 1493.55 264.899 1493.55 250.56C1493.55 227.758 1509.83 132.918 1502.19 125.28C1492.55 115.639 1480.59 22.62 1480.59 0"/><path id="shape24" transform="translate(6549.1199403559, 7031.29585467943)" fill="none" stroke="#0046aa" stroke-width="18" stroke-linecap="round" stroke-linejoin="round" stroke-dasharray="18,36" d="M846.72 606.464C846.72 557.279 840.938 452.406 859.68 433.664C884.414 408.93 894.25 329.974 911.52 312.704C912.556 311.668 911.52 226.952 911.52 217.664C911.52 212.17 915.017 186.601 911.52 183.104C902.339 173.923 892.852 163.049 885.6 148.544C880.484 138.312 885.144 70.3281 881.28 66.4641C880.498 65.6824 839.937 56.5924 833.76 53.5041C818.835 46.0416 808.236 36.6206 799.2 27.5841C795.916 24.3002 782.132 25.5301 777.6 23.2641C724.561 -3.25553 664.959 1.66408 600.48 1.66408C599.654 1.66408 379.008 -2.0801 371.52 1.66408C326.181 24.3334 280.09 30.9372 246.24 53.5041C231.864 63.0879 195.314 66.0072 177.12 75.1041C115.578 105.875 52.5905 143.849 0 170.144"/><path id="shape25" transform="translate(5749.91994763437, 7201.43993441509)" fill="none" stroke="#0046aa" stroke-width="18" stroke-linecap="round" stroke-linejoin="round" stroke-dasharray="18,36" d="M799.2 0C748.945 33.5033 758.211 28.6605 673.92 69.12C659.771 75.9115 640.054 75.2528 626.4 82.08C620.844 84.8578 610.9 80.555 604.8 82.08C579.242 88.4695 559.77 91.635 535.68 103.68C527.616 107.712 513.504 99.648 505.44 103.68C496.87 107.965 445.233 120.687 444.96 120.96C433.367 132.553 393.47 133.57 384.48 142.56C343.083 183.957 86.8642 228.96 0 228.96"/><path id="shape26" transform="translate(7371.5558018552, 4982.39996685962)" fill="none" stroke="#0046aa" stroke-width="18" stroke-linecap="round" stroke-linejoin="round" stroke-dasharray="18,36" d="M96.2841 0C82.2062 5.6308 83.5321 30.0318 76.124 37.4399C61.3405 52.2234 19.3138 81.2901 2.68397 97.9199C-3.35497 103.959 2.68397 131.308 2.68397 141.12C2.68397 152.085 -0.227779 177.088 7.00397 184.32C32.9273 210.243 46.2924 245.208 71.804 270.72C73.244 272.16 74.684 282.24 76.124 283.68C95.6771 303.233 127.667 313.622 145.244 331.2C156.632 342.588 169.645 401.602 179.804 421.92C182.239 426.79 179.804 438.246 179.804 443.52C179.804 502.968 144.67 526.174 110.684 560.16C104.096 566.748 102.044 624.533 102.044 637.92C102.044 647.337 97.9237 668.559 102.044 676.8C113.655 700.023 120.715 727.101 132.284 750.24C136.271 758.214 130.475 778.671 136.604 784.8C143.283 791.479 144.731 805.887 149.564 810.72C192.903 854.059 205.39 987.506 257.564 1039.68C262.442 1044.56 284.346 1135.58 292.124 1143.36C309.344 1160.58 269.443 1318.32 261.884 1333.44C258.888 1339.43 243.508 1351.82 235.964 1359.36C233.927 1361.4 238 1365.96 235.964 1368C227.878 1376.09 222.171 1399.91 214.364 1415.52C206.682 1430.88 187.583 1455.26 175.484 1467.36C170.49 1472.35 164.872 1527.46 158.204 1540.8C154.172 1548.86 162.236 1562.98 158.204 1571.04C136.585 1614.28 169.469 1718.68 153.884 1765.44C139.03 1810 118.916 1852.66 97.724 1895.04C89.5588 1911.37 89.6725 1958.66 80.444 1977.12C73.2982 1991.41 87.9735 2068.95 80.444 2076.48C74.8238 2082.1 67.484 2106.13 67.484 2115.36"/><path id="shape27" transform="translate(4643.99985858239, 9432.7197127578)" fill="none" stroke="#0046aa" stroke-width="18" stroke-linecap="round" stroke-linejoin="round" stroke-dasharray="18,36" d="M0 1529.28C21.5095 1507.77 43.253 1481.71 66.96 1458C80.9651 1443.99 81.6367 1394.09 90.72 1375.92C122.166 1313.03 158.532 1249.79 209.52 1198.8C221.02 1187.3 225.098 1168.1 235.44 1157.76C286.164 1107.04 340.667 1090.61 410.4 1062.72C439.815 1050.95 523.16 1006.12 544.32 984.96C565.259 964.021 639.466 930.89 671.76 909.36C672.039 909.174 743.015 801.411 747.36 792.72C755.276 776.887 751.903 740.657 766.8 725.76C767.607 724.953 777.872 714.705 777.6 712.8C776.73 706.71 766.77 699.87 771.12 695.52C820.964 645.676 799.658 493.068 788.4 425.52C783.786 397.839 781.723 289.243 766.8 274.32C762.538 270.058 765.516 159.431 756 140.4C751.092 130.584 784.08 21.5439 784.08 0"/>
</svg>
