<?xml version="1.0" standalone="no"?>
<!DOCTYPE svg PUBLIC "-//W3C//DTD SVG 20010904//EN" "http://www.w3.org/TR/2001/REC-SVG-20010904/DTD/svg10.dtd">
<!-- Created using Krita: https://krita.org -->
<svg xmlns="http://www.w3.org/2000/svg" 
    xmlns:xlink="http://www.w3.org/1999/xlink"
    xmlns:krita="http://krita.org/namespaces/svg/krita"
    xmlns:sodipodi="http://sodipodi.sourceforge.net/DTD/sodipodi-0.dtd"
    width="10200.2pt"
    height="13200.5pt"
    viewBox="0 0 10200.2 13200.5">
<defs/>
<g id="group0" transform="matrix(0.570884352913683 0 0 0.570884352913683 3042.47063221499 5684.86544344852)" fill="none">
  <path id="shape0" transform="translate(3.68255612398332, 7.72463492519105)" fill="#ffffff" fill-rule="evenodd" stroke="#ffffff" stroke-width="10.8" stroke-linecap="square" stroke-linejoin="miter" stroke-miterlimit="2.16000008583069" d="M0 276.763L277.801 276.57L277.621 241.47L273.121 214.47L254.401 214.29L249.001 162.63L230.101 162.63L230.101 186.03L211.021 186.03L211.021 157.05L206.341 138.87L206.341 100.89L229.021 95.49L228.841 90.63L191.221 65.61L191.041 52.65L149.281 19.17L149.281 10.17L139.201 0L130.381 9.45L130.334 18.8314L87.1863 52.0512L86.9317 65.7338L48.7479 90.5532L48.7515 94.5L70.8945 100.354L72.4219 138.537L67.8398 155.847L67.5853 186.649L47.4752 186.904L47.857 162.975L29.9106 163.23L25.7104 215.16L5.85486 215.414L0.636411 243.288Z"/>
  <g id="group01" transform="matrix(0.0564557953749972 0 0 -0.0564557953749972 -0.564557953749841 289.053672319985)" fill="none">
   <path id="shape01" transform="translate(10, -5.6843418860808e-14)" fill="#000000" stroke="#000000" stroke-opacity="0" stroke-width="0" stroke-linecap="square" stroke-linejoin="bevel" d="M2417 4992L2290 4865L2290 4784L2290 4704L1910 4409L1531 4115L1530 3990L1530 3865L1192 3655L855 3444L852 3343C850 3268 853 3241 862 3238C869 3235 964 3216 1072 3194L1270 3156L1270 2847L1270 2539L1230 2380L1190 2221L1190 2000L1190 1780L1105 1780L1020 1780L1020 1990L1020 2200L770 2200C577 2200 520 2197 519 2188C519 2181 500 1973 477 1725L435 1275L269 1272L104 1270L52 972L0 675L0 338L0 0L2545 0L5090 0L5090 338L5090 675L5040 965C5012 1125 4990 1258 4990 1263C4990 1267 4916 1270 4825 1270C4662 1270 4660 1270 4656 1293C4653 1305 4635 1500 4615 1725C4596 1951 4577 2150 4574 2167L4569 2200L4320 2200L4070 2200L4070 1990L4070 1780L3985 1780L3900 1780L3900 1996L3900 2212L3860 2379L3820 2545L3822 2850L3825 3154L4030 3195L4235 3236L4237 3340L4240 3445L3902 3655L3565 3865L3562 3990L3559 4115L3180 4410L2800 4705L2800 4785L2800 4865L2672 4993L2545 5120ZM2630 4773C2630 4751 2627 4750 2545 4750C2464 4750 2460 4751 2460 4772C2460 4785 2478 4813 2502 4837L2544 4880L2587 4838C2613 4813 2630 4787 2630 4773ZM3026 4307L3375 4034L3378 3967L3381 3900L2540 3900L1700 3900L1700 3964L1700 4028L2053 4304L2405 4580L2541 4580L2678 4580ZM3732 3554C3885 3456 4013 3374 4015 3370C4017 3366 3957 3351 3881 3337L3742 3310L2539 3310L1335 3311L1200 3339L1065 3367L1130 3408C1166 3431 1294 3512 1415 3589L1635 3729L2544 3729L3453 3730ZM3650 2885L3650 2630L3565 2630L3480 2630L3480 2800L3480 2970L3225 2970L2970 2970L2970 2800L2970 2630L2885 2630L2800 2630L2800 2800L2800 2970L2545 2970L2290 2970L2290 2800L2290 2630L2205 2630L2120 2630L2120 2800L2120 2970L1868 2968L1615 2965L1612 2798L1610 2630L1525 2630L1440 2630L1440 2878C1440 3015 1443 3130 1447 3133C1450 3137 1948 3140 2552 3140L3650 3140ZM1950 2715L1950 2630L1865 2630L1780 2630L1780 2715L1780 2800L1865 2800L1950 2800ZM2630 2715L2630 2630L2545 2630L2460 2630L2460 2715L2460 2800L2545 2800L2630 2800ZM3310 2715L3310 2630L3225 2630L3140 2630L3140 2715L3140 2800L3225 2800L3310 2800ZM3706 2330C3739 2207 3740 2201 3740 1993L3740 1780L3655 1780L3570 1780L3570 1990L3570 2200L3315 2200L3060 2200L3060 1990L3060 1780L2935 1780L2810 1780L2810 1990L2810 2200L2555 2200L2300 2200L2300 1990L2300 1780L2175 1780L2050 1780L2050 1990L2050 2200L1795 2200L1540 2200L1540 1990L1540 1780L1456 1780L1371 1780L1368 1998C1365 2208 1366 2219 1393 2325C1408 2386 1423 2441 1425 2448C1429 2458 1659 2460 2551 2458L3673 2455ZM850 1905L850 1780L749 1780L647 1780L654 1848C657 1885 663 1941 666 1973L673 2030L761 2030L850 2030ZM1870 1905L1870 1780L1785 1780L1700 1780L1700 1905L1700 2030L1785 2030L1870 2030ZM2630 1905L2630 1780L2545 1780L2460 1780L2460 1905L2460 2030L2545 2030L2630 2030ZM3390 1905L3390 1780L3305 1780L3220 1780L3220 1905L3220 2030L3305 2030L3390 2030ZM4423 1993C4426 1972 4432 1916 4436 1868L4443 1780L4341 1780L4240 1780L4240 1905L4240 2030L4329 2030L4417 2030ZM4464 1578C4473 1524 4490 1342 4490 1305L4490 1270L4195 1270L3900 1270L3900 1015L3900 760L3815 760L3730 760L3730 1015L3730 1270L3180 1270L2630 1270L2630 1015L2630 760L2545 760L2460 760L2460 1015L2460 1270L1910 1270L1360 1270L1360 1015L1360 760L1275 760L1190 760L1190 1015L1190 1270L900 1270L610 1270L610 1305C610 1342 627 1524 636 1578L641 1610L2550 1610L4459 1610ZM1020 930L1020 760L605 760C377 760 190 762 190 765C190 775 241 1067 246 1083C251 1099 278 1100 636 1100L1020 1100ZM2290 930L2290 760L1910 760L1530 760L1530 930L1530 1100L1910 1100L2290 1100ZM3560 930L3560 760L3180 760L2800 760L2800 930L2800 1100L3180 1100L3560 1100ZM4854 1078C4861 1048 4900 784 4900 770C4900 763 4764 760 4485 760L4070 760L4070 930L4070 1100L4460 1100L4850 1100ZM4920 380L4920 170L2545 170L170 170L170 380L170 590L2545 590L4920 590Z"/>
  </g>
 </g>
</svg>
